<svg width="88" height="88" version="1.1" xmlns="http://www.w3.org/2000/svg" desc="Created with imagetracer.js version 1.2.6" ><path fill="rgb(0,0,0)" stroke="rgb(0,0,0)" stroke-width="1" opacity="0" d="M 0 0 L 35 0.5 Q 16 4.5 7 18.5 Q 2.1 25.1 0.5 35 L 0 0 Z " /><path fill="rgb(0,0,0)" stroke="rgb(0,0,0)" stroke-width="1" opacity="0" d="M 53.5 0 L 88 0 L 88 34.5 L 87 34.5 L 84 23.5 L 70.5 8 Q 64.2 2.3 53.5 1 L 53.5 0 Z " /><path fill="rgb(0,0,0)" stroke="rgb(0,0,0)" stroke-width="1" opacity="0" d="M 0.5 53 Q 4.2 71.3 17.5 80 Q 24.2 85.8 35 87.5 L 0 88 L 0.5 53 Z " /><path fill="rgb(0,0,0)" stroke="rgb(0,0,0)" stroke-width="1" opacity="0" d="M 87.5 53 L 88 88 L 53 87.5 L 64.5 84 L 80 70.5 Q 85.8 63.8 87.5 53 Z " /><path fill="rgb(254,232,0)" stroke="rgb(254,232,0)" stroke-width="1" opacity="1" d="M 41.5 0 Q 68 1 79 17.5 L 87 34.5 L 88 46.5 Q 85.5 48 87 53.5 L 81 67.5 L 70.5 79 L 53.5 87 L 41.5 88 Q 40 85.5 34.5 87 L 20.5 81 L 9 70.5 L 1 53.5 L 0 41.5 Q 2.5 40 1 34.5 L 7 20.5 L 17.5 9 L 28.5 3 L 41.5 0 Z M 41 17 L 33 19 L 25 24 Q 19 29 16 38 L 16 50 Q 19 59 26 64 L 26 76 L 28 77 L 39 69 Q 54 71 61 65 Q 69 59 72 49 L 72 38 L 66 27 Q 58 17 41 17 Z " /><path fill="rgb(254,232,0)" stroke="rgb(254,232,0)" stroke-width="1" opacity="1" d="M 33.5 33 Q 40.1 33.4 43 37.5 L 44 41 Q 40.3 42.5 41 39.5 Q 39.4 35.1 32.5 36 L 29 38.5 L 28 46.5 Q 29.5 51.5 37.5 50 L 41.5 46 L 43.5 46 L 43 47.5 L 39.5 52 L 31.5 53 L 26 48.5 L 25 40.5 L 27 36 L 33.5 33 Z " /><path fill="rgb(254,232,0)" stroke="rgb(254,232,0)" stroke-width="1" opacity="1" d="M 48 33 L 51 33 L 51 40.5 L 52.5 40 L 57.5 39 L 61 43.5 L 61 53 L 58 52.5 L 58 43.5 Q 57 41 52.5 42 L 51 43.5 L 51 53 L 48 52.5 L 48 33 Z " /><path fill="rgb(202,184,0)" stroke="rgb(202,184,0)" stroke-width="1" opacity="1" d="M 24.5 24 L 22.5 27 L 24.5 24 Z " /><path fill="rgb(202,184,0)" stroke="rgb(202,184,0)" stroke-width="1" opacity="1" d="M 63.5 24 L 65.5 27 L 63.5 24 Z " /><path fill="rgb(202,184,0)" stroke="rgb(202,184,0)" stroke-width="1" opacity="1" d="M 30.5 37 L 29.5 39 L 30.5 37 Z " /><path fill="rgb(202,184,0)" stroke="rgb(202,184,0)" stroke-width="1" opacity="1" d="M 42.5 49 L 40.5 52 L 42.5 49 Z " /><path fill="rgb(24,22,2)" stroke="rgb(24,22,2)" stroke-width="1" opacity="1" d="M 25.5 24 L 22.5 28 L 25.5 24 Z " /><path fill="rgb(24,22,2)" stroke="rgb(24,22,2)" stroke-width="1" opacity="1" d="M 62.5 24 L 65.5 28 L 62.5 24 Z " /><path fill="rgb(24,22,2)" stroke="rgb(24,22,2)" stroke-width="1" opacity="1" d="M 30.5 38 L 29.5 40 L 30.5 38 Z " /><path fill="rgb(24,22,2)" stroke="rgb(24,22,2)" stroke-width="1" opacity="1" d="M 42.5 50 L 41.5 52 L 42.5 50 Z " /><path fill="rgb(66,62,1)" stroke="rgb(66,62,1)" stroke-width="1" opacity="1" d="M 40.5 34 L 42.5 37 L 40.5 34 Z " /><path fill="rgb(66,62,1)" stroke="rgb(66,62,1)" stroke-width="1" opacity="1" d="M 27.5 35 L 26.5 37 L 27.5 35 Z " /><path fill="rgb(66,62,1)" stroke="rgb(66,62,1)" stroke-width="1" opacity="1" d="M 16.5 40 L 17 46.5 L 16 46.5 L 16.5 40 Z " /><path fill="rgb(66,62,1)" stroke="rgb(66,62,1)" stroke-width="1" opacity="1" d="M 71.5 40 L 72 45.5 L 71 45.5 L 71.5 40 Z " /><path fill="rgb(66,62,1)" stroke="rgb(66,62,1)" stroke-width="1" opacity="1" d="M 41.5 45 L 44 45.5 L 41.5 46 L 41.5 45 Z " /><path fill="rgb(66,62,1)" stroke="rgb(66,62,1)" stroke-width="1" opacity="1" d="M 39.5 47 L 38.5 49 L 39.5 47 Z " /><path fill="rgb(66,62,1)" stroke="rgb(66,62,1)" stroke-width="1" opacity="1" d="M 48.5 53 L 51 53.5 L 48.5 54 L 48.5 53 Z " /><path fill="rgb(66,62,1)" stroke="rgb(66,62,1)" stroke-width="1" opacity="1" d="M 58.5 53 L 61 53.5 L 58.5 54 L 58.5 53 Z " /><path fill="rgb(66,62,1)" stroke="rgb(66,62,1)" stroke-width="1" opacity="1" d="M 20.5 57 L 25.5 63 L 20.5 57 Z " /><path fill="rgb(66,62,1)" stroke="rgb(66,62,1)" stroke-width="1" opacity="1" d="M 65.5 59 L 62.5 63 L 65.5 59 Z " /><path fill="rgb(66,62,1)" stroke="rgb(66,62,1)" stroke-width="1" opacity="1" d="M 36.5 69 L 35.5 71 L 36.5 69 Z " /><path fill="rgb(66,62,1)" stroke="rgb(66,62,1)" stroke-width="1" opacity="1" d="M 32.5 72 L 31.5 74 L 32.5 72 Z " /><path fill="rgb(254,232,0)" stroke="rgb(254,232,0)" stroke-width="1" opacity="0.396078431372549" d="M 35.5 0 L 39 0.5 L 35.5 1 L 35.5 0 Z " /><path fill="rgb(254,232,0)" stroke="rgb(254,232,0)" stroke-width="1" opacity="0.396078431372549" d="M 49.5 0 L 53 0.5 L 49.5 1 L 49.5 0 Z " /><path fill="rgb(254,232,0)" stroke="rgb(254,232,0)" stroke-width="1" opacity="0.396078431372549" d="M 23.5 4 L 25 4.5 L 22.5 6 L 23.5 4 Z " /><path fill="rgb(254,232,0)" stroke="rgb(254,232,0)" stroke-width="1" opacity="0.396078431372549" d="M 63.5 4 L 66 5.5 L 64.5 5 L 63.5 4 Z " /><path fill="rgb(254,232,0)" stroke="rgb(254,232,0)" stroke-width="1" opacity="0.396078431372549" d="M 20.5 6 L 19.5 8 L 8 18.5 L 6.5 21 L 7 19.5 L 18.5 7 L 20.5 6 Z " /><path fill="rgb(254,232,0)" stroke="rgb(254,232,0)" stroke-width="1" opacity="0.396078431372549" d="M 67.5 6 L 68.5 8 L 67.5 6 Z " /><path fill="rgb(254,232,0)" stroke="rgb(254,232,0)" stroke-width="1" opacity="0.396078431372549" d="M 70.5 8 L 79.5 18 L 70.5 8 Z " /><path fill="rgb(254,232,0)" stroke="rgb(254,232,0)" stroke-width="1" opacity="0.396078431372549" d="M 80.5 19 L 81.5 21 L 80.5 19 Z " /><path fill="rgb(254,232,0)" stroke="rgb(254,232,0)" stroke-width="1" opacity="0.396078431372549" d="M 5.5 22 L 5 23.5 L 4.5 25 L 4 23.5 L 5.5 22 Z " /><path fill="rgb(254,232,0)" stroke="rgb(254,232,0)" stroke-width="1" opacity="0.396078431372549" d="M 82.5 22 L 84 24.5 L 83 24.5 L 82.5 22 Z " /><path fill="rgb(254,232,0)" stroke="rgb(254,232,0)" stroke-width="1" opacity="0.396078431372549" d="M 0.5 35 L 1 38.5 L 0 38.5 L 0.5 35 Z " /><path fill="rgb(254,232,0)" stroke="rgb(254,232,0)" stroke-width="1" opacity="0.396078431372549" d="M 87.5 35 L 88 38.5 L 87 38.5 L 87.5 35 Z " /><path fill="rgb(254,232,0)" stroke="rgb(254,232,0)" stroke-width="1" opacity="0.396078431372549" d="M 0.5 49 L 1 52.5 L 0 52.5 L 0.5 49 Z " /><path fill="rgb(254,232,0)" stroke="rgb(254,232,0)" stroke-width="1" opacity="0.396078431372549" d="M 87.5 49 L 88 52.5 L 87 52.5 L 87.5 49 Z " /><path fill="rgb(254,232,0)" stroke="rgb(254,232,0)" stroke-width="1" opacity="0.396078431372549" d="M 4.5 63 L 6 65.5 L 4 64.5 L 4.5 63 Z " /><path fill="rgb(254,232,0)" stroke="rgb(254,232,0)" stroke-width="1" opacity="0.396078431372549" d="M 83.5 63 L 84 64.5 L 82 65.5 L 83.5 63 Z " /><path fill="rgb(254,232,0)" stroke="rgb(254,232,0)" stroke-width="1" opacity="0.396078431372549" d="M 6.5 67 L 18 79.5 L 7 69.5 L 6.5 67 Z " /><path fill="rgb(254,232,0)" stroke="rgb(254,232,0)" stroke-width="1" opacity="0.396078431372549" d="M 81.5 67 L 80.5 69 L 81.5 67 Z " /><path fill="rgb(254,232,0)" stroke="rgb(254,232,0)" stroke-width="1" opacity="0.396078431372549" d="M 79.5 70 L 70.5 80 L 79.5 70 Z " /><path fill="rgb(254,232,0)" stroke="rgb(254,232,0)" stroke-width="1" opacity="0.396078431372549" d="M 19.5 80 L 20.5 82 L 19.5 80 Z " /><path fill="rgb(254,232,0)" stroke="rgb(254,232,0)" stroke-width="1" opacity="0.396078431372549" d="M 68.5 80 L 67.5 82 L 68.5 80 Z " /><path fill="rgb(254,232,0)" stroke="rgb(254,232,0)" stroke-width="1" opacity="0.396078431372549" d="M 22.5 82 L 25 83.5 L 23.5 84 L 22.5 82 Z " /><path fill="rgb(254,232,0)" stroke="rgb(254,232,0)" stroke-width="1" opacity="0.396078431372549" d="M 65.5 82 L 64.5 84 L 63 83.5 L 65.5 82 Z " /><path fill="rgb(254,232,0)" stroke="rgb(254,232,0)" stroke-width="1" opacity="0.396078431372549" d="M 35.5 87 L 39 87.5 L 35.5 88 L 35.5 87 Z " /><path fill="rgb(254,232,0)" stroke="rgb(254,232,0)" stroke-width="1" opacity="0.396078431372549" d="M 49.5 87 L 53 87.5 L 49.5 88 L 49.5 87 Z " /><path fill="rgb(132,120,1)" stroke="rgb(132,120,1)" stroke-width="1" opacity="1" d="M 42.5 17 L 46 17.5 L 42.5 18 L 42.5 17 Z " /><path fill="rgb(132,120,1)" stroke="rgb(132,120,1)" stroke-width="1" opacity="1" d="M 51.5 33 L 52 39.5 L 51 39.5 L 51.5 33 Z " /><path fill="rgb(132,120,1)" stroke="rgb(132,120,1)" stroke-width="1" opacity="1" d="M 58.5 39 L 59.5 41 L 58.5 39 Z " /><path fill="rgb(132,120,1)" stroke="rgb(132,120,1)" stroke-width="1" opacity="1" d="M 24.5 41 L 25 44.5 L 24 44.5 L 24.5 41 Z " /><path fill="rgb(132,120,1)" stroke="rgb(132,120,1)" stroke-width="1" opacity="1" d="M 56.5 42 L 58 43.5 L 58 52.5 L 57 52.5 Q 57.8 44.3 56.5 42 Z " /><path fill="rgb(132,120,1)" stroke="rgb(132,120,1)" stroke-width="1" opacity="1" d="M 51.5 44 L 52 52.5 L 51 52.5 L 51.5 44 Z " /><path fill="rgb(132,120,1)" stroke="rgb(132,120,1)" stroke-width="1" opacity="1" d="M 29.5 47 L 30.5 49 L 29.5 47 Z " /><path fill="rgb(132,120,1)" stroke="rgb(132,120,1)" stroke-width="1" opacity="1" d="M 26.5 49 L 28.5 52 L 26.5 49 Z " /><path fill="rgb(132,120,1)" stroke="rgb(132,120,1)" stroke-width="1" opacity="1" d="M 33.5 53 L 36 53.5 L 33.5 54 L 33.5 53 Z " /><path fill="rgb(132,120,1)" stroke="rgb(132,120,1)" stroke-width="1" opacity="1" d="M 26.5 63 L 27 75.5 L 26 75.5 L 26.5 63 Z " /><path fill="rgb(1,2,2)" stroke="rgb(1,2,2)" stroke-width="1" opacity="1" d="M 39.5 18 Q 60.8 17.2 68 30.5 Q 72.8 36.7 71 49.5 Q 68.2 58.2 61.5 63 Q 54.7 69.2 41.5 69 L 38.5 68 L 27.5 76 L 27 63.5 Q 20.1 58.9 17 50.5 L 17 37.5 Q 20 27 28.5 22 L 39.5 18 Z M 31 33 L 29 34 L 24 41 L 25 49 L 32 54 Q 39 55 42 52 L 45 45 L 40 45 L 40 47 L 35 50 L 32 49 L 28 44 L 33 37 L 39 38 L 41 41 L 45 41 L 44 38 Q 41 31 31 33 Z M 48 33 L 48 54 L 52 54 L 52 43 L 56 42 L 57 44 L 57 54 L 61 54 L 61 42 L 57 38 L 54 39 L 52 39 L 52 33 L 48 33 Z " /></svg>