<svg width="100" height="100" version="1.1" xmlns="http://www.w3.org/2000/svg" desc="Created with imagetracer.js version 1.2.6" ><path fill="rgb(252,252,252)" stroke="rgb(252,252,252)" stroke-width="1" opacity="1" d="M 26.5 27 L 76 27.5 L 26.5 28 L 26.5 27 Z " /><path fill="rgb(252,252,252)" stroke="rgb(252,252,252)" stroke-width="1" opacity="1" d="M 24.5 29 L 25 54.5 L 21.5 56 L 21.5 55 L 24 54.5 L 24.5 29 Z " /><path fill="rgb(252,252,252)" stroke="rgb(252,252,252)" stroke-width="1" opacity="1" d="M 27.5 29 L 27 30.5 L 27 54.5 L 28.5 55 L 28.5 56 L 26 54.5 L 26 30.5 L 27.5 29 Z " /><path fill="rgb(252,252,252)" stroke="rgb(252,252,252)" stroke-width="1" opacity="1" d="M 74.5 29 L 76 30.5 L 76 48 L 73.5 49 L 75 46.5 L 75 30.5 L 74.5 29 Z " /><path fill="rgb(252,252,252)" stroke="rgb(252,252,252)" stroke-width="1" opacity="1" d="M 33.5 48 L 54 48.5 L 33.5 49 L 33.5 48 Z " /><path fill="rgb(252,252,252)" stroke="rgb(252,252,252)" stroke-width="1" opacity="1" d="M 65.5 49 L 71 49.5 L 65.5 50 L 65.5 49 Z " /><path fill="rgb(252,252,252)" stroke="rgb(252,252,252)" stroke-width="1" opacity="1" d="M 79.5 49 L 85 49.5 L 79.5 50 L 79.5 49 Z " /><path fill="rgb(252,252,252)" stroke="rgb(252,252,252)" stroke-width="1" opacity="1" d="M 33.5 50 L 53.5 50 L 54 52.5 L 53 52.5 L 52.5 51 L 38 51 L 37.5 53 L 37 51 Q 32.6 52 33.5 50 Z " /><path fill="rgb(252,252,252)" stroke="rgb(252,252,252)" stroke-width="1" opacity="1" d="M 67.5 51 L 70 51.5 L 67.5 52 L 67.5 51 Z " /><path fill="rgb(252,252,252)" stroke="rgb(252,252,252)" stroke-width="1" opacity="1" d="M 80.5 51 L 84 51 L 84 60.5 L 83 60.5 L 83 52.5 L 80.5 52 L 80.5 51 Z " /><path fill="rgb(252,252,252)" stroke="rgb(252,252,252)" stroke-width="1" opacity="1" d="M 73.5 53 L 72.5 55 L 73.5 53 Z " /><path fill="rgb(252,252,252)" stroke="rgb(252,252,252)" stroke-width="1" opacity="1" d="M 76.5 53 L 77.5 55 L 76.5 53 Z " /><path fill="rgb(252,252,252)" stroke="rgb(252,252,252)" stroke-width="1" opacity="1" d="M 31.5 55 L 65 55.5 L 31.5 56 L 31.5 55 Z " /><path fill="rgb(252,252,252)" stroke="rgb(252,252,252)" stroke-width="1" opacity="1" d="M 74.5 55 L 73.5 57 L 74.5 55 Z " /><path fill="rgb(252,252,252)" stroke="rgb(252,252,252)" stroke-width="1" opacity="1" d="M 78.5 56 L 79.5 58 L 78.5 56 Z " /><path fill="rgb(252,252,252)" stroke="rgb(252,252,252)" stroke-width="1" opacity="1" d="M 23.5 57 L 44 57.5 L 23 58 L 22.5 61 L 22 58.5 L 23.5 57 Z " /><path fill="rgb(252,252,252)" stroke="rgb(252,252,252)" stroke-width="1" opacity="1" d="M 46.5 57 L 56 57.5 L 46.5 58 L 46.5 57 Z " /><path fill="rgb(252,252,252)" stroke="rgb(252,252,252)" stroke-width="1" opacity="1" d="M 58.5 57 L 65 57.5 L 58.5 58 L 58.5 57 Z " /><path fill="rgb(252,252,252)" stroke="rgb(252,252,252)" stroke-width="1" opacity="1" d="M 46.5 59 L 56 59.5 L 46.5 60 L 46.5 59 Z " /><path fill="rgb(252,252,252)" stroke="rgb(252,252,252)" stroke-width="1" opacity="1" d="M 44.5 61 L 57 61.5 L 44.5 62 L 44.5 61 Z " /><path fill="rgb(252,252,252)" stroke="rgb(252,252,252)" stroke-width="1" opacity="1" d="M 68.5 63 L 71.5 64 L 79 64.5 L 71 65.5 L 75.5 69 L 77 68.5 L 74.5 70 L 68.5 63 Z " /><path fill="rgb(252,252,252)" stroke="rgb(252,252,252)" stroke-width="1" opacity="1" d="M 81.5 64 L 80.5 66 L 81.5 64 Z " /><path fill="rgb(252,252,252)" stroke="rgb(252,252,252)" stroke-width="1" opacity="1" d="M 67.5 65 L 71.5 70 L 69 68.5 L 67.5 65 Z " /><path fill="rgb(252,252,252)" stroke="rgb(252,252,252)" stroke-width="1" opacity="1" d="M 79.5 68 L 76.5 72 L 79.5 68 Z " /><path fill="rgb(252,252,252)" stroke="rgb(252,252,252)" stroke-width="1" opacity="1" d="M 40 71 Q 43 70 42 73 Q 39 74 40 71 Z " /><path fill="rgb(255,255,255)" stroke="rgb(255,255,255)" stroke-width="1" opacity="1" d="M 0 0 L 100 0 L 100 100 L 0 100 L 0 0 Z M 27 27 L 24 30 L 24 55 L 21 55 L 21 63 L 24 65 L 67 65 L 69 68 L 18 68 L 17 70 L 73 70 L 75 72 Q 79 73 80 69 L 85 70 Q 86 67 82 68 L 85 64 L 85 49 L 79 49 L 77 48 L 77 29 L 76 27 L 27 27 Z M 34 71 L 35 73 L 68 73 L 68 71 L 34 71 Z " /><path fill="rgb(255,255,255)" stroke="rgb(255,255,255)" stroke-width="1" opacity="1" d="M 28.5 29 L 73.5 29 L 75 30.5 L 75 46.5 L 73.5 48 L 73 32 L 29 32 L 29 54.5 L 27 55 L 27 30.5 L 28.5 29 Z " /><path fill="rgb(255,255,255)" stroke="rgb(255,255,255)" stroke-width="1" opacity="1" d="M 31 34 L 71 34 L 71 49 L 65 49 L 65 54.5 L 64.5 55 L 31 55 L 31 34 Z M 33 48 L 34 53 L 54 53 L 54 48 L 33 48 Z " /><path fill="rgb(255,255,255)" stroke="rgb(255,255,255)" stroke-width="1" opacity="1" d="M 74.5 50 L 83 52 Q 85.3 64.5 77.5 68 L 74.5 69 L 67 60.5 L 67 52 L 74.5 50 Z M 74 53 L 72 55 Q 73 58 70 57 Q 68 63 72 65 Q 78 67 80 64 Q 81 57 78 55 Q 77 52 74 53 Z " /><path fill="rgb(255,255,255)" stroke="rgb(255,255,255)" stroke-width="1" opacity="1" d="M 75.5 55 L 76 57 L 74 56.5 L 75.5 55 Z " /><path fill="rgb(255,255,255)" stroke="rgb(255,255,255)" stroke-width="1" opacity="1" d="M 23 58 L 43.5 58 L 44.5 62 L 56.5 62 L 58 58 L 65 58 L 65 63 L 24.5 63 L 23 61.5 L 23 58 Z " /><path fill="rgb(255,255,255)" stroke="rgb(255,255,255)" stroke-width="1" opacity="1" d="M 46.5 58 L 56 58.5 L 46.5 59 L 46.5 58 Z " /><path fill="rgb(255,255,255)" stroke="rgb(255,255,255)" stroke-width="1" opacity="1" d="M 72.5 59 L 74 62.5 L 72 63 L 72.5 59 Z " /><path fill="rgb(255,255,255)" stroke="rgb(255,255,255)" stroke-width="1" opacity="1" d="M 77.5 59 L 78 63 L 76 62.5 L 77.5 59 Z " /><path fill="rgb(55,55,55)" stroke="rgb(55,55,55)" stroke-width="1" opacity="1" d="M 25 28 L 77 28 L 77 48.5 L 78.5 49 L 85 50 L 85 62.5 L 81 67.5 L 85 68 L 85 70 L 80 70 L 79.5 68 L 74.5 72 L 67.5 65 L 24.5 65 L 21 62.5 L 21 56 L 23.5 56 L 25 54.5 L 25 28 Z M 28 29 L 26 31 L 26 55 L 28 56 L 29 56 L 29 32 L 73 32 L 73 49 L 75 48 L 76 48 L 76 31 L 75 29 L 28 29 Z M 31 34 L 31 56 L 65 56 L 65 56 L 65 50 L 71 50 L 71 34 L 31 34 Z M 74 50 L 67 51 L 67 62 L 75 70 L 81 66 Q 86 62 84 51 L 74 50 Z M 24 57 L 22 61 L 25 63 L 66 63 L 65 57 L 58 57 L 58 61 L 45 61 L 44 57 L 24 57 Z M 46 57 L 47 60 L 56 60 L 56 57 L 46 57 Z " /><path fill="rgb(55,55,55)" stroke="rgb(55,55,55)" stroke-width="1" opacity="1" d="M 33.5 49 L 54 49.5 L 33.5 50 L 33.5 49 Z " /><path fill="rgb(55,55,55)" stroke="rgb(55,55,55)" stroke-width="1" opacity="1" d="M 33 51 Q 38.2 49.3 37 53 Q 31.8 54.7 33 51 Z " /><path fill="rgb(55,55,55)" stroke="rgb(55,55,55)" stroke-width="1" opacity="1" d="M 38 51 L 52.5 51 L 53 53 L 38.5 53 L 38 51 Z " /><path fill="rgb(55,55,55)" stroke="rgb(55,55,55)" stroke-width="1" opacity="1" d="M 74.5 53 L 78 55.5 Q 81.2 58 80 64 L 71.5 64 L 70 62.5 L 70 58.5 L 74.5 53 Z M 75 55 L 74 57 L 77 57 L 75 55 Z M 72 59 L 72 63 L 78 63 L 78 59 L 77 59 L 77 61 L 77 62 L 73 62 L 74 60 L 72 59 Z " /><path fill="rgb(55,55,55)" stroke="rgb(55,55,55)" stroke-width="1" opacity="1" d="M 17 68 L 68.5 68 L 70 69.5 L 17 70 L 17 68 Z " /><path fill="rgb(55,55,55)" stroke="rgb(55,55,55)" stroke-width="1" opacity="1" d="M 35 71 L 40 71 L 40 73 L 35 73 L 35 71 Z " /><path fill="rgb(55,55,55)" stroke="rgb(55,55,55)" stroke-width="1" opacity="1" d="M 42 71 L 66.5 71 L 67 73 L 42.5 73 L 42 71 Z " /></svg>