<svg width="100" height="100" version="1.1" xmlns="http://www.w3.org/2000/svg" desc="Created with imagetracer.js version 1.2.6" ><path fill="rgb(217,217,217)" stroke="rgb(217,217,217)" stroke-width="1" opacity="1" d="M 28.5 21 L 83.5 21 L 85 22.5 L 83.5 22 L 28.5 22 L 27.5 23 L 28.5 21 Z " /><path fill="rgb(217,217,217)" stroke="rgb(217,217,217)" stroke-width="1" opacity="1" d="M 36.5 34 L 37 37.5 L 36 37.5 L 36.5 34 Z " /><path fill="rgb(217,217,217)" stroke="rgb(217,217,217)" stroke-width="1" opacity="1" d="M 38.5 35 L 83 35.5 L 38.5 36 L 38.5 35 Z " /><path fill="rgb(217,217,217)" stroke="rgb(217,217,217)" stroke-width="1" opacity="1" d="M 38.5 38 L 39 42.5 L 38 42.5 L 38.5 38 Z " /><path fill="rgb(217,217,217)" stroke="rgb(217,217,217)" stroke-width="1" opacity="1" d="M 32.5 39 L 37 39.5 L 32.5 40 L 32.5 39 Z " /><path fill="rgb(217,217,217)" stroke="rgb(217,217,217)" stroke-width="1" opacity="1" d="M 36.5 42 L 37 44.5 L 36 44.5 L 36.5 42 Z " /><path fill="rgb(217,217,217)" stroke="rgb(217,217,217)" stroke-width="1" opacity="1" d="M 22.5 43 L 25 44.5 L 23.5 45 L 22.5 43 Z " /><path fill="rgb(217,217,217)" stroke="rgb(217,217,217)" stroke-width="1" opacity="1" d="M 18.5 47 Q 20.3 50.1 22 48.5 L 21 49.5 L 24.5 54 L 18.5 47 Z " /><path fill="rgb(217,217,217)" stroke="rgb(217,217,217)" stroke-width="1" opacity="1" d="M 32.5 49 L 29 53.5 L 29.5 55 L 27 53.5 L 32.5 49 Z " /><path fill="rgb(217,217,217)" stroke="rgb(217,217,217)" stroke-width="1" opacity="1" d="M 35.5 49 L 83 49.5 L 35.5 50 L 35.5 49 Z " /><path fill="rgb(217,217,217)" stroke="rgb(217,217,217)" stroke-width="1" opacity="1" d="M 29.5 63 L 83 63.5 L 29.5 64 L 29.5 63 Z " /><path fill="rgb(217,217,217)" stroke="rgb(217,217,217)" stroke-width="1" opacity="1" d="M 29.5 77 L 83 77.5 L 29.5 78 L 29.5 77 Z " /><path fill="rgb(255,255,255)" stroke="rgb(255,255,255)" stroke-width="1" opacity="1" d="M 0 0 L 100 0 L 100 100 L 0 100 L 0 0 Z M 29 21 L 27 23 L 27 31 L 17 32 L 17 45 L 18 48 L 27 56 L 27 79 L 84 79 L 85 78 L 85 23 L 84 21 L 29 21 Z " /><path fill="rgb(255,255,255)" stroke="rgb(255,255,255)" stroke-width="1" opacity="1" d="M 29 23 L 82.5 23 L 83 23.5 L 83 35 L 38.5 35 L 38 32 L 31.5 32 L 29 31 L 29 23 Z M 70 28 L 71 30 L 79 30 L 79 28 L 70 28 Z " /><path fill="rgb(255,255,255)" stroke="rgb(255,255,255)" stroke-width="1" opacity="1" d="M 27.5 32 Q 30 35.2 36 34 L 37 38.5 Q 29 39 24.5 43 L 22.5 39 L 19 39 L 19 34 Q 25 35.2 27.5 32 Z " /><path fill="rgb(255,255,255)" stroke="rgb(255,255,255)" stroke-width="1" opacity="1" d="M 38.5 37 L 82.5 37 L 83 37.5 L 83 49 L 36 48.5 L 38 46.5 L 39 38.5 L 38.5 37 Z M 70 42 L 70 44 L 79 44 L 80 43 L 70 42 Z " /><path fill="rgb(255,255,255)" stroke="rgb(255,255,255)" stroke-width="1" opacity="1" d="M 19 41 Q 23.1 39.3 22 43.5 L 24.5 45 L 32.5 41 L 36.5 41 L 36 42.5 Q 36.6 47.6 33.5 49 L 28.5 53 L 26.5 53 Q 19.2 49.9 19 41 Z " /><path fill="rgb(255,255,255)" stroke="rgb(255,255,255)" stroke-width="1" opacity="1" d="M 33.5 51 L 82.5 51 L 83 51.5 L 83 63 L 29.5 63 L 29 62.5 L 29 55.5 L 33.5 51 Z M 70 56 L 70 58 L 80 58 L 79 56 L 70 56 Z " /><path fill="rgb(255,255,255)" stroke="rgb(255,255,255)" stroke-width="1" opacity="1" d="M 29 65 L 82.5 65 L 83 65.5 L 83 77 L 29.5 77 L 29 76.5 L 29 65 Z M 70 71 L 70 73 L 79 73 L 80 72 L 70 71 Z " /><path fill="rgb(54,54,54)" stroke="rgb(54,54,54)" stroke-width="1" opacity="1" d="M 28.5 22 L 83.5 22 L 85 23.5 L 85 34.5 L 84 36.5 L 85 37.5 L 85 48.5 L 84 50.5 L 85 51.5 L 85 62.5 L 84 64.5 L 85 65.5 L 85 76.5 L 84 79 L 28.5 79 L 27 77.5 L 27 55.5 L 18 46.5 Q 15.7 41.7 17 33.5 L 18.5 32 Q 24.6 32.8 27 31 L 27 23.5 L 28.5 22 Z M 29 23 L 29 31 L 31 32 L 38 32 L 39 36 L 83 36 L 83 24 L 83 23 L 29 23 Z M 28 32 Q 25 35 19 34 Q 17 41 23 39 L 24 43 L 31 40 L 37 40 L 37 34 L 28 32 Z M 38 37 Q 40 46 35 50 L 83 50 L 83 38 L 83 37 L 38 37 Z M 19 40 L 19 46 L 21 49 L 29 54 L 36 47 L 37 41 L 33 41 L 27 44 L 24 44 L 22 42 L 19 40 Z M 34 51 L 29 54 L 29 64 L 30 64 L 83 64 L 83 52 L 83 51 L 34 51 Z M 29 65 L 29 78 L 30 78 L 83 78 L 83 66 L 83 65 L 29 65 Z " /><path fill="rgb(54,54,54)" stroke="rgb(54,54,54)" stroke-width="1" opacity="1" d="M 71 28 L 78.5 28 L 79 30 L 71.5 30 L 71 28 Z " /><path fill="rgb(54,54,54)" stroke="rgb(54,54,54)" stroke-width="1" opacity="1" d="M 71 42 L 78.5 42 L 79 44 L 71.5 44 L 71 42 Z " /><path fill="rgb(54,54,54)" stroke="rgb(54,54,54)" stroke-width="1" opacity="1" d="M 71 56 L 78.5 56 L 79 58 L 71.5 58 L 71 56 Z " /><path fill="rgb(54,54,54)" stroke="rgb(54,54,54)" stroke-width="1" opacity="1" d="M 71 71 L 78.5 71 L 79 73 L 71.5 73 L 71 71 Z " /></svg>