<svg width="100" height="100" version="1.1" xmlns="http://www.w3.org/2000/svg" desc="Created with imagetracer.js version 1.2.6" ><path fill="rgb(254,254,254)" stroke="rgb(254,254,254)" stroke-width="1" opacity="1" d="M 40.5 17 L 42.5 20 L 40.5 17 Z " /><path fill="rgb(254,254,254)" stroke="rgb(254,254,254)" stroke-width="1" opacity="1" d="M 46.5 19 L 47 21 L 45 20.5 L 46.5 19 Z " /><path fill="rgb(254,254,254)" stroke="rgb(254,254,254)" stroke-width="1" opacity="1" d="M 52.5 19 L 53.5 21 L 52.5 19 Z " /><path fill="rgb(254,254,254)" stroke="rgb(254,254,254)" stroke-width="1" opacity="1" d="M 36.5 24 L 35.5 26 L 36.5 24 Z " /><path fill="rgb(254,254,254)" stroke="rgb(254,254,254)" stroke-width="1" opacity="1" d="M 67.5 26 L 68.5 28 L 66 27.5 L 67.5 26 Z " /><path fill="rgb(254,254,254)" stroke="rgb(254,254,254)" stroke-width="1" opacity="1" d="M 33.5 27 Q 35.8 26.3 35 28.5 L 37 28.5 L 35.5 30 L 33.5 27 Z " /><path fill="rgb(254,254,254)" stroke="rgb(254,254,254)" stroke-width="1" opacity="1" d="M 26.5 28 L 27.5 30 L 26.5 28 Z " /><path fill="rgb(254,254,254)" stroke="rgb(254,254,254)" stroke-width="1" opacity="1" d="M 31.5 29 L 30.5 31 L 28.5 32 L 29.5 30 L 31.5 29 Z " /><path fill="rgb(254,254,254)" stroke="rgb(254,254,254)" stroke-width="1" opacity="1" d="M 37.5 30 L 36.5 32 L 35 31.5 L 37.5 30 Z " /><path fill="rgb(254,254,254)" stroke="rgb(254,254,254)" stroke-width="1" opacity="1" d="M 66.5 30 L 63.5 34 L 54.5 34 L 53.5 35 L 52.5 33 L 54.5 33 Q 64.3 35.3 66.5 30 Z " /><path fill="rgb(254,254,254)" stroke="rgb(254,254,254)" stroke-width="1" opacity="1" d="M 36.5 33 L 45.5 33 L 47 34.5 L 48 37.5 L 47 41 L 49 41.5 L 47.5 42 Q 44.3 40.1 46 34 L 36.5 34 L 36.5 33 Z " /><path fill="rgb(254,254,254)" stroke="rgb(254,254,254)" stroke-width="1" opacity="1" d="M 36.5 35 L 37 36.5 L 36.5 39 Q 33.8 37.8 36 36.5 L 36.5 35 Z " /><path fill="rgb(254,254,254)" stroke="rgb(254,254,254)" stroke-width="1" opacity="1" d="M 39.5 35 L 40.5 37 L 39.5 35 Z " /><path fill="rgb(254,254,254)" stroke="rgb(254,254,254)" stroke-width="1" opacity="1" d="M 42.5 35 L 44.5 38 L 42.5 35 Z " /><path fill="rgb(254,254,254)" stroke="rgb(254,254,254)" stroke-width="1" opacity="1" d="M 66.5 35 L 67.5 37 L 66.5 35 Z " /><path fill="rgb(254,254,254)" stroke="rgb(254,254,254)" stroke-width="1" opacity="1" d="M 70.5 35 L 69.5 37 L 70.5 35 Z " /><path fill="rgb(254,254,254)" stroke="rgb(254,254,254)" stroke-width="1" opacity="1" d="M 77.5 35 L 78.5 37 L 77.5 35 Z " /><path fill="rgb(254,254,254)" stroke="rgb(254,254,254)" stroke-width="1" opacity="1" d="M 28.5 36 L 27.5 38 L 28.5 36 Z " /><path fill="rgb(254,254,254)" stroke="rgb(254,254,254)" stroke-width="1" opacity="1" d="M 72.5 36 L 72.5 39 L 70.5 39 L 69 38.5 L 72.5 36 Z " /><path fill="rgb(254,254,254)" stroke="rgb(254,254,254)" stroke-width="1" opacity="1" d="M 74.5 36 L 77 37.5 L 75.5 38 L 74.5 36 Z " /><path fill="rgb(254,254,254)" stroke="rgb(254,254,254)" stroke-width="1" opacity="1" d="M 17.5 40 L 18.5 42 L 17.5 40 Z " /><path fill="rgb(254,254,254)" stroke="rgb(254,254,254)" stroke-width="1" opacity="1" d="M 74.5 40 L 80 41.5 L 56.5 42 L 56.5 41 L 73.5 41 L 74.5 40 Z " /><path fill="rgb(254,254,254)" stroke="rgb(254,254,254)" stroke-width="1" opacity="1" d="M 20.5 41 L 45 41.5 L 20.5 42 L 20.5 41 Z " /><path fill="rgb(254,254,254)" stroke="rgb(254,254,254)" stroke-width="1" opacity="1" d="M 51.5 41 L 54 41.5 L 51.5 42 L 51.5 41 Z " /><path fill="rgb(254,254,254)" stroke="rgb(254,254,254)" stroke-width="1" opacity="1" d="M 18.5 43 L 18 44.5 L 17.5 46 L 17 44.5 L 18.5 43 Z " /><path fill="rgb(254,254,254)" stroke="rgb(254,254,254)" stroke-width="1" opacity="1" d="M 72.5 43 Q 75.5 44.5 72.5 46 L 72.5 43 Z " /><path fill="rgb(254,254,254)" stroke="rgb(254,254,254)" stroke-width="1" opacity="1" d="M 45.5 44 L 46.5 46 L 44 45.5 L 45.5 44 Z " /><path fill="rgb(254,254,254)" stroke="rgb(254,254,254)" stroke-width="1" opacity="1" d="M 52.5 44 L 52 45.5 L 51.5 47 L 51 45.5 L 52.5 44 Z " /><path fill="rgb(254,254,254)" stroke="rgb(254,254,254)" stroke-width="1" opacity="1" d="M 23.5 46 L 22.5 48 L 23.5 46 Z " /><path fill="rgb(254,254,254)" stroke="rgb(254,254,254)" stroke-width="1" opacity="1" d="M 20.5 57 Q 22.2 60.1 24 58.5 L 22.5 60 L 20.5 57 Z " /><path fill="rgb(254,254,254)" stroke="rgb(254,254,254)" stroke-width="1" opacity="1" d="M 44.5 58 L 43.5 60 L 44.5 58 Z " /><path fill="rgb(254,254,254)" stroke="rgb(254,254,254)" stroke-width="1" opacity="1" d="M 46.5 58 L 47 65 Q 49.7 63.9 49 66.5 L 46 66.5 L 46.5 58 Z " /><path fill="rgb(254,254,254)" stroke="rgb(254,254,254)" stroke-width="1" opacity="1" d="M 76.5 58 L 75.5 60 L 76.5 58 Z " /><path fill="rgb(254,254,254)" stroke="rgb(254,254,254)" stroke-width="1" opacity="1" d="M 17.5 59 L 16.5 61 L 17.5 59 Z " /><path fill="rgb(254,254,254)" stroke="rgb(254,254,254)" stroke-width="1" opacity="1" d="M 27.5 59 Q 29.7 63.3 32 61.5 Q 32.8 63.8 30.5 63 L 28 62.5 L 29 61.5 L 27.5 59 Z " /><path fill="rgb(254,254,254)" stroke="rgb(254,254,254)" stroke-width="1" opacity="1" d="M 32.5 59 L 38.5 65 L 45 65.5 L 37 66 L 35.5 63 Q 33.3 63.8 34 61.5 L 32.5 59 Z " /><path fill="rgb(254,254,254)" stroke="rgb(254,254,254)" stroke-width="1" opacity="1" d="M 39.5 60 L 40.5 62 L 39.5 60 Z " /><path fill="rgb(254,254,254)" stroke="rgb(254,254,254)" stroke-width="1" opacity="1" d="M 71.5 60 L 69.5 63 L 71.5 60 Z " /><path fill="rgb(254,254,254)" stroke="rgb(254,254,254)" stroke-width="1" opacity="1" d="M 73.5 60 Q 76.5 61.5 73.5 63 L 73.5 60 Z " /><path fill="rgb(254,254,254)" stroke="rgb(254,254,254)" stroke-width="1" opacity="1" d="M 18.5 61 L 19.5 63 L 18.5 61 Z " /><path fill="rgb(254,254,254)" stroke="rgb(254,254,254)" stroke-width="1" opacity="1" d="M 65.5 61 L 66.5 63 L 65.5 61 Z " /><path fill="rgb(254,254,254)" stroke="rgb(254,254,254)" stroke-width="1" opacity="1" d="M 77.5 61 L 78.5 63 L 76 62.5 L 77.5 61 Z " /><path fill="rgb(254,254,254)" stroke="rgb(254,254,254)" stroke-width="1" opacity="1" d="M 26.5 64 L 25.5 68 Q 22 66 26.5 64 Z " /><path fill="rgb(254,254,254)" stroke="rgb(254,254,254)" stroke-width="1" opacity="1" d="M 31.5 64 L 35 64.5 L 31.5 65 L 31.5 64 Z " /><path fill="rgb(254,254,254)" stroke="rgb(254,254,254)" stroke-width="1" opacity="1" d="M 66.5 64 L 67 65.5 L 66.5 68 Q 63.8 66.8 66 65.5 L 66.5 64 Z " /><path fill="rgb(254,254,254)" stroke="rgb(254,254,254)" stroke-width="1" opacity="1" d="M 69.5 64 L 68.5 66 L 69.5 64 Z " /><path fill="rgb(254,254,254)" stroke="rgb(254,254,254)" stroke-width="1" opacity="1" d="M 56.5 65 L 64 65.5 L 56.5 66 L 56.5 65 Z " /><path fill="rgb(254,254,254)" stroke="rgb(254,254,254)" stroke-width="1" opacity="1" d="M 42.5 67 L 41.5 69 L 42.5 67 Z " /><path fill="rgb(254,254,254)" stroke="rgb(254,254,254)" stroke-width="1" opacity="1" d="M 52.5 68 L 51.5 70 L 52.5 68 Z " /><path fill="rgb(254,254,254)" stroke="rgb(254,254,254)" stroke-width="1" opacity="1" d="M 29.5 70 L 32 70.5 Q 29.9 73.8 29.5 70 Z " /><path fill="rgb(254,254,254)" stroke="rgb(254,254,254)" stroke-width="1" opacity="1" d="M 45.5 73 L 46.5 75 L 45.5 73 Z " /><path fill="rgb(254,254,254)" stroke="rgb(254,254,254)" stroke-width="1" opacity="1" d="M 52.5 73 Q 54.8 72.3 54 74.5 L 54.5 76 L 52.5 73 Z " /><path fill="rgb(254,254,254)" stroke="rgb(254,254,254)" stroke-width="1" opacity="1" d="M 43.5 74 L 44.5 76 L 43.5 74 Z " /><path fill="rgb(254,254,254)" stroke="rgb(254,254,254)" stroke-width="1" opacity="1" d="M 42.5 77 L 43.5 79 L 42.5 77 Z " /><path fill="rgb(254,254,254)" stroke="rgb(254,254,254)" stroke-width="1" opacity="1" d="M 50.5 77 L 53 77.5 L 49 80 L 50.5 77 Z " /><path fill="rgb(254,254,254)" stroke="rgb(254,254,254)" stroke-width="1" opacity="1" d="M 45.5 78 L 46.5 80 L 45.5 78 Z " /><path fill="rgb(254,254,254)" stroke="rgb(254,254,254)" stroke-width="1" opacity="1" d="M 48.5 81 L 52 81.5 L 48.5 82 L 48.5 81 Z " /><path fill="rgb(254,254,254)" stroke="rgb(254,254,254)" stroke-width="1" opacity="1" d="M 51.5 83 L 50.5 85 L 51.5 83 Z " /><path fill="rgb(254,254,254)" stroke="rgb(254,254,254)" stroke-width="1" opacity="1" d="M 42.5 84 L 43.5 86 L 42.5 84 Z " /><path fill="rgb(88,88,88)" stroke="rgb(88,88,88)" stroke-width="1" opacity="1" d="M 48.5 19 Q 53.3 18.3 54 21.5 Q 55 26 52.5 27 L 51 27.5 L 51 42 L 54 42 L 54 34 L 63.5 34 L 67.5 30 L 69.5 30 L 72 31 L 73 35.5 L 68.5 39 L 65 36.5 L 64.5 35 L 56 35 L 56 41.5 L 56.5 42 L 79.5 42 L 79.5 43 L 20 42.5 L 45 42 L 45 35 L 36 35 L 34.5 38 L 31.5 39 L 29 38 L 28 32.5 L 33.5 30 L 36 34 L 46 34 L 46 40.5 L 49 42 L 49 27.5 L 47 27 L 47 25.5 L 46 21.5 L 48.5 19 Z M 48 21 L 47 24 L 51 26 Q 55 24 52 23 L 52 21 L 48 21 Z M 30 32 Q 29 36 32 37 Q 35 38 34 36 L 34 34 L 34 32 L 30 32 Z M 68 32 L 66 36 L 70 37 L 71 34 L 68 32 Z " /><path fill="rgb(88,88,88)" stroke="rgb(88,88,88)" stroke-width="1" opacity="1" d="M 20.5 56 L 80 56.5 L 78.5 58 L 56 58 L 56 66 L 64 66 L 65.5 63 L 68.5 62 L 72 64.5 Q 73 69 70.5 70 L 67.5 71 L 64 68.5 L 63.5 67 L 54 67 L 54 58 L 51 58 L 51 72.5 Q 55 73.5 54 79.5 Q 52.4 82.5 47 81 L 46 75.5 L 49 72.5 L 49 58 L 46 58 L 46 67 L 37.5 67 L 37 68.5 L 32.5 71 L 29 68.5 Q 28 64 30.5 63 L 33.5 62 L 37 64.5 L 37.5 66 L 45 66 L 45 58.5 L 44.5 58 L 21.5 58 L 20.5 56 Z M 31 64 L 31 68 L 35 69 Q 37 62 31 64 Z M 66 64 L 66 66 Q 63 67 68 69 Q 71 70 70 68 L 70 66 L 70 64 L 66 64 Z M 48 75 L 47 78 L 51 80 Q 55 78 52 77 L 52 75 L 48 75 Z " /><path fill="rgb(255,255,255)" stroke="rgb(255,255,255)" stroke-width="1" opacity="1" d="M 0 0 L 100 0 L 100 100 L 0 100 L 0 0 Z M 47 19 L 45 21 L 47 27 Q 46 29 49 28 L 49 41 L 47 41 L 48 38 L 47 35 L 46 33 L 37 33 L 37 32 L 32 29 L 30 30 L 27 35 L 31 39 L 36 38 L 37 35 L 40 36 L 42 35 L 44 35 Q 46 34 45 37 L 45 39 L 45 41 L 20 41 L 21 43 L 72 43 L 74 43 Q 81 45 80 41 L 75 40 L 74 41 L 56 41 L 56 35 L 64 35 L 65 38 L 68 39 Q 72 40 73 37 Q 74 31 71 30 Q 65 29 64 33 L 55 33 L 53 35 L 54 41 L 51 41 L 51 31 L 51 29 Q 55 27 54 21 Q 53 18 49 19 L 47 19 Z M 34 27 L 35 29 Q 36 26 34 27 Z M 20 56 L 20 58 L 22 59 L 25 58 L 34 58 L 35 59 L 36 58 L 44 58 Q 47 60 45 65 Q 37 67 35 61 L 33 62 Q 31 60 30 63 Q 31 65 29 64 L 28 67 L 32 71 L 36 70 Q 38 71 37 67 L 39 67 L 41 67 L 43 68 L 48 66 Q 50 67 49 73 L 46 74 L 45 79 Q 46 83 52 82 Q 55 81 54 77 L 54 75 Q 55 72 51 73 L 52 70 Q 49 68 51 62 L 51 60 Q 50 57 54 58 L 53 60 Q 56 61 54 67 L 56 68 L 57 67 L 64 67 L 65 70 Q 64 73 70 71 Q 73 69 72 63 L 70 62 Q 64 61 64 65 L 56 65 L 56 58 L 65 58 L 71 58 Q 75 57 77 59 L 79 58 L 80 59 L 80 56 L 20 56 Z " /><path fill="rgb(255,255,255)" stroke="rgb(255,255,255)" stroke-width="1" opacity="1" d="M 49.5 21 L 52 22.5 L 50.5 26 L 48 24.5 L 49.5 21 Z " /><path fill="rgb(255,255,255)" stroke="rgb(255,255,255)" stroke-width="1" opacity="1" d="M 31.5 32 L 34 33.5 L 32.5 37 L 30 35.5 L 31.5 32 Z " /><path fill="rgb(255,255,255)" stroke="rgb(255,255,255)" stroke-width="1" opacity="1" d="M 67.5 32 L 71 33.5 L 68.5 37 L 66.5 34 L 68 33.5 L 67.5 32 Z " /><path fill="rgb(255,255,255)" stroke="rgb(255,255,255)" stroke-width="1" opacity="1" d="M 47 58 Q 50.3 56.7 49 61.5 L 49 63.5 Q 49.7 66.1 47 65 L 47 58 Z " /><path fill="rgb(255,255,255)" stroke="rgb(255,255,255)" stroke-width="1" opacity="1" d="M 67 64 L 70 65.5 Q 71.1 68.8 68.5 68 L 67 68.5 L 66 66.5 L 67 64 Z " /><path fill="rgb(255,255,255)" stroke="rgb(255,255,255)" stroke-width="1" opacity="1" d="M 31 65 Q 36.2 62.9 35 67.5 Q 33.8 70.3 32.5 68 Q 29.5 68.7 31 65 Z " /><path fill="rgb(255,255,255)" stroke="rgb(255,255,255)" stroke-width="1" opacity="1" d="M 49.5 75 L 52 76 L 50.5 79 L 48 78.5 L 49.5 75 Z " /></svg>