<svg width="100" height="100" version="1.1" xmlns="http://www.w3.org/2000/svg" desc="Created with imagetracer.js version 1.2.6" ><path fill="rgb(254,254,254)" stroke="rgb(254,254,254)" stroke-width="1" opacity="1" d="M 56.5 8 L 57.5 10 L 56.5 8 Z " /><path fill="rgb(254,254,254)" stroke="rgb(254,254,254)" stroke-width="1" opacity="1" d="M 59.5 8 L 61 10.5 L 57.5 13 L 56.5 11 L 58.5 12 L 60 9.5 L 59.5 8 Z " /><path fill="rgb(254,254,254)" stroke="rgb(254,254,254)" stroke-width="1" opacity="1" d="M 64.5 8 Q 66.3 11.1 68 9.5 L 67 12 L 64 10.5 L 64.5 8 Z " /><path fill="rgb(254,254,254)" stroke="rgb(254,254,254)" stroke-width="1" opacity="1" d="M 61.5 12 L 60.5 14 L 61.5 12 Z " /><path fill="rgb(254,254,254)" stroke="rgb(254,254,254)" stroke-width="1" opacity="1" d="M 68.5 12 L 69 14.5 L 67.5 16 L 63 15.5 L 68 14.5 Q 65.7 13.3 68.5 12 Z " /><path fill="rgb(254,254,254)" stroke="rgb(254,254,254)" stroke-width="1" opacity="1" d="M 49.5 16 L 50.5 18 L 49.5 16 Z " /><path fill="rgb(254,254,254)" stroke="rgb(254,254,254)" stroke-width="1" opacity="1" d="M 83.5 16 Q 85.3 19.1 87 17.5 L 85.5 19 L 83.5 16 Z " /><path fill="rgb(254,254,254)" stroke="rgb(254,254,254)" stroke-width="1" opacity="1" d="M 76.5 17 L 79 20.5 L 77 19.5 L 76.5 17 Z " /><path fill="rgb(254,254,254)" stroke="rgb(254,254,254)" stroke-width="1" opacity="1" d="M 53.5 18 L 55 18.5 L 48.5 24 L 51 20.5 L 50.5 19 Q 52 21.5 53.5 18 Z " /><path fill="rgb(254,254,254)" stroke="rgb(254,254,254)" stroke-width="1" opacity="1" d="M 58.5 18 L 59.5 20 L 58.5 18 Z " /><path fill="rgb(254,254,254)" stroke="rgb(254,254,254)" stroke-width="1" opacity="1" d="M 71.5 18 L 70 20.5 L 67.5 24 L 69 21.5 L 71.5 18 Z " /><path fill="rgb(254,254,254)" stroke="rgb(254,254,254)" stroke-width="1" opacity="1" d="M 61.5 19 Q 63.8 23.2 66 21.5 L 64.5 23 L 61.5 19 Z " /><path fill="rgb(254,254,254)" stroke="rgb(254,254,254)" stroke-width="1" opacity="1" d="M 54.5 20 L 49.5 26 L 54.5 20 Z " /><path fill="rgb(254,254,254)" stroke="rgb(254,254,254)" stroke-width="1" opacity="1" d="M 75.5 20 L 76.5 22 L 75.5 20 Z " /><path fill="rgb(254,254,254)" stroke="rgb(254,254,254)" stroke-width="1" opacity="1" d="M 73.5 22 L 78 24.5 L 73 27.5 L 73.5 29 L 72 27.5 L 75 24.5 L 73.5 22 Z " /><path fill="rgb(254,254,254)" stroke="rgb(254,254,254)" stroke-width="1" opacity="1" d="M 81.5 23 L 84 24.5 L 82.5 25 L 81.5 23 Z " /><path fill="rgb(254,254,254)" stroke="rgb(254,254,254)" stroke-width="1" opacity="1" d="M 40.5 24 L 41.5 26 L 40.5 24 Z " /><path fill="rgb(254,254,254)" stroke="rgb(254,254,254)" stroke-width="1" opacity="1" d="M 45.5 24 L 48 25.5 L 46 26.5 L 45.5 24 Z " /><path fill="rgb(254,254,254)" stroke="rgb(254,254,254)" stroke-width="1" opacity="1" d="M 60.5 24 L 58.5 27 L 57 26.5 L 60.5 24 Z " /><path fill="rgb(254,254,254)" stroke="rgb(254,254,254)" stroke-width="1" opacity="1" d="M 62.5 25 L 60 28.5 L 60.5 30 L 59 28.5 L 62.5 25 Z " /><path fill="rgb(254,254,254)" stroke="rgb(254,254,254)" stroke-width="1" opacity="1" d="M 41.5 27 L 42.5 29 L 41.5 27 Z " /><path fill="rgb(254,254,254)" stroke="rgb(254,254,254)" stroke-width="1" opacity="1" d="M 44.5 28 L 45.5 30 L 44.5 28 Z " /><path fill="rgb(254,254,254)" stroke="rgb(254,254,254)" stroke-width="1" opacity="1" d="M 57.5 28 L 56.5 30 L 57.5 28 Z " /><path fill="rgb(254,254,254)" stroke="rgb(254,254,254)" stroke-width="1" opacity="1" d="M 62.5 28 L 63 30.5 L 61 31.5 L 62.5 28 Z " /><path fill="rgb(254,254,254)" stroke="rgb(254,254,254)" stroke-width="1" opacity="1" d="M 65.5 30 L 66.5 32 L 65.5 30 Z " /><path fill="rgb(254,254,254)" stroke="rgb(254,254,254)" stroke-width="1" opacity="1" d="M 85.5 31 L 87 33.5 L 85 32.5 L 85.5 31 Z " /><path fill="rgb(254,254,254)" stroke="rgb(254,254,254)" stroke-width="1" opacity="1" d="M 41.5 32 L 40.5 34 L 41.5 32 Z " /><path fill="rgb(254,254,254)" stroke="rgb(254,254,254)" stroke-width="1" opacity="1" d="M 74.5 32 L 77 32.5 Q 74.9 35.8 74.5 32 Z " /><path fill="rgb(254,254,254)" stroke="rgb(254,254,254)" stroke-width="1" opacity="1" d="M 44.5 33 L 45 39.5 L 44 39.5 Q 45.9 34.1 42.5 35 L 42.5 34 L 44.5 33 Z " /><path fill="rgb(254,254,254)" stroke="rgb(254,254,254)" stroke-width="1" opacity="1" d="M 59.5 33 L 60.5 35 L 59.5 33 Z " /><path fill="rgb(254,254,254)" stroke="rgb(254,254,254)" stroke-width="1" opacity="1" d="M 63.5 33 L 64 35.5 L 62.5 37 L 62 34.5 L 63.5 33 Z " /><path fill="rgb(254,254,254)" stroke="rgb(254,254,254)" stroke-width="1" opacity="1" d="M 58.5 35 L 57.5 39 Q 54 37 58.5 35 Z " /><path fill="rgb(254,254,254)" stroke="rgb(254,254,254)" stroke-width="1" opacity="1" d="M 74.5 36 L 77 36.5 Q 74.9 39.8 74.5 36 Z " /><path fill="rgb(254,254,254)" stroke="rgb(254,254,254)" stroke-width="1" opacity="1" d="M 62.5 38 L 61.5 40 L 62.5 38 Z " /><path fill="rgb(254,254,254)" stroke="rgb(254,254,254)" stroke-width="1" opacity="1" d="M 68.5 38 L 67.5 40 L 68.5 38 Z " /><path fill="rgb(254,254,254)" stroke="rgb(254,254,254)" stroke-width="1" opacity="1" d="M 70.5 38 L 71.5 40 L 70.5 38 Z " /><path fill="rgb(254,254,254)" stroke="rgb(254,254,254)" stroke-width="1" opacity="1" d="M 21.5 40 L 26.5 43 L 29 41.5 L 28.5 43 L 38 43.5 L 21.5 44 L 21.5 43 L 25 42.5 Q 21.2 42.4 21.5 40 Z " /><path fill="rgb(254,254,254)" stroke="rgb(254,254,254)" stroke-width="1" opacity="1" d="M 42.5 40 L 41 42.5 L 42.5 45 L 40 44.5 L 40 42.5 L 42.5 40 Z " /><path fill="rgb(254,254,254)" stroke="rgb(254,254,254)" stroke-width="1" opacity="1" d="M 53.5 40 Q 51.9 41.8 55 43.5 L 52.5 46 L 50 45.5 L 54 43.5 L 51 42.5 L 53.5 40 Z " /><path fill="rgb(254,254,254)" stroke="rgb(254,254,254)" stroke-width="1" opacity="1" d="M 64.5 41 L 65.5 43 L 64.5 41 Z " /><path fill="rgb(254,254,254)" stroke="rgb(254,254,254)" stroke-width="1" opacity="1" d="M 78.5 42 L 79 43.5 L 77 44.5 L 78.5 42 Z " /><path fill="rgb(254,254,254)" stroke="rgb(254,254,254)" stroke-width="1" opacity="1" d="M 82.5 42 L 83 43.5 L 81.5 46 L 81 44.5 L 82.5 42 Z " /><path fill="rgb(254,254,254)" stroke="rgb(254,254,254)" stroke-width="1" opacity="1" d="M 45.5 43 L 44.5 45 L 45.5 43 Z " /><path fill="rgb(254,254,254)" stroke="rgb(254,254,254)" stroke-width="1" opacity="1" d="M 56.5 44 L 57.5 46 L 56.5 44 Z " /><path fill="rgb(254,254,254)" stroke="rgb(254,254,254)" stroke-width="1" opacity="1" d="M 71.5 44 L 74 44.5 L 73.5 47 Q 71.8 43.9 70 45.5 L 71.5 44 Z " /><path fill="rgb(254,254,254)" stroke="rgb(254,254,254)" stroke-width="1" opacity="1" d="M 18.5 45 L 19.5 47 Q 16.7 47.7 18.5 45 Z " /><path fill="rgb(254,254,254)" stroke="rgb(254,254,254)" stroke-width="1" opacity="1" d="M 64.5 45 L 65.5 47 L 64.5 45 Z " /><path fill="rgb(254,254,254)" stroke="rgb(254,254,254)" stroke-width="1" opacity="1" d="M 41.5 46 L 44 49.5 L 42 48.5 L 41.5 46 Z " /><path fill="rgb(254,254,254)" stroke="rgb(254,254,254)" stroke-width="1" opacity="1" d="M 54.5 46 L 53.5 48 L 54.5 46 Z " /><path fill="rgb(254,254,254)" stroke="rgb(254,254,254)" stroke-width="1" opacity="1" d="M 61.5 46 L 63 46.5 L 61 47 L 63.5 51 L 65 50.5 L 63.5 52 L 60 48.5 L 61.5 46 Z " /><path fill="rgb(254,254,254)" stroke="rgb(254,254,254)" stroke-width="1" opacity="1" d="M 83.5 46 L 84 48 L 82 47.5 L 83.5 46 Z " /><path fill="rgb(254,254,254)" stroke="rgb(254,254,254)" stroke-width="1" opacity="1" d="M 22.5 47 L 25 47.5 L 21 49.5 L 22 50.5 L 19 53.5 L 18.5 55 L 17 52.5 Q 19 54.2 21 50.5 Q 18.2 48.8 22.5 47 Z " /><path fill="rgb(254,254,254)" stroke="rgb(254,254,254)" stroke-width="1" opacity="1" d="M 80.5 47 L 79.5 49 L 80.5 47 Z " /><path fill="rgb(254,254,254)" stroke="rgb(254,254,254)" stroke-width="1" opacity="1" d="M 26.5 48 L 26.5 51 Q 23.5 49.5 26.5 48 Z " /><path fill="rgb(254,254,254)" stroke="rgb(254,254,254)" stroke-width="1" opacity="1" d="M 31.5 48 L 30.5 50 L 31.5 48 Z " /><path fill="rgb(254,254,254)" stroke="rgb(254,254,254)" stroke-width="1" opacity="1" d="M 46.5 49 Q 49.5 50.5 46.5 52 L 46.5 49 Z " /><path fill="rgb(254,254,254)" stroke="rgb(254,254,254)" stroke-width="1" opacity="1" d="M 54.5 49 L 54 50.5 L 55 52.5 L 53 51.5 L 54.5 49 Z " /><path fill="rgb(254,254,254)" stroke="rgb(254,254,254)" stroke-width="1" opacity="1" d="M 67.5 49 L 72 49.5 L 68.5 51 L 67.5 49 Z " /><path fill="rgb(254,254,254)" stroke="rgb(254,254,254)" stroke-width="1" opacity="1" d="M 74.5 49 Q 76.3 52.1 78 50.5 L 76.5 52 L 74.5 49 Z " /><path fill="rgb(254,254,254)" stroke="rgb(254,254,254)" stroke-width="1" opacity="1" d="M 81.5 49 L 84 50.5 L 82.5 50 L 81 50.5 L 84 54.5 L 81 52.5 L 80.5 51 L 77 53.5 L 81.5 49 Z " /><path fill="rgb(254,254,254)" stroke="rgb(254,254,254)" stroke-width="1" opacity="1" d="M 85.5 50 L 88 50.5 Q 84.9 52.3 86.5 54 L 85 52.5 L 85.5 50 Z " /><path fill="rgb(254,254,254)" stroke="rgb(254,254,254)" stroke-width="1" opacity="1" d="M 30.5 52 L 32.5 53 L 34 52.5 L 31 54.5 L 32 56.5 L 31 56.5 L 30 54.5 L 30.5 52 Z " /><path fill="rgb(254,254,254)" stroke="rgb(254,254,254)" stroke-width="1" opacity="1" d="M 51.5 52 Q 54.5 53.5 51.5 55 L 51.5 52 Z " /><path fill="rgb(254,254,254)" stroke="rgb(254,254,254)" stroke-width="1" opacity="1" d="M 23.5 53 L 28 53.5 L 23 55.5 L 23.5 53 Z " /><path fill="rgb(254,254,254)" stroke="rgb(254,254,254)" stroke-width="1" opacity="1" d="M 41.5 55 L 42.5 57 L 41.5 55 Z " /><path fill="rgb(254,254,254)" stroke="rgb(254,254,254)" stroke-width="1" opacity="1" d="M 17.5 56 L 16.5 58 L 17.5 56 Z " /><path fill="rgb(254,254,254)" stroke="rgb(254,254,254)" stroke-width="1" opacity="1" d="M 25.5 56 L 25.5 59 Q 22.5 57.5 25.5 56 Z " /><path fill="rgb(254,254,254)" stroke="rgb(254,254,254)" stroke-width="1" opacity="1" d="M 83.5 57 L 82.5 59 L 83.5 57 Z " /><path fill="rgb(254,254,254)" stroke="rgb(254,254,254)" stroke-width="1" opacity="1" d="M 86.5 57 L 86 58.5 L 87 61.5 L 86 61.5 L 85.5 60 L 83 61.5 L 86.5 57 Z " /><path fill="rgb(254,254,254)" stroke="rgb(254,254,254)" stroke-width="1" opacity="1" d="M 53.5 58 L 56 59 L 55.5 61 L 53.5 58 Z " /><path fill="rgb(254,254,254)" stroke="rgb(254,254,254)" stroke-width="1" opacity="1" d="M 18.5 59 L 19 61.5 L 18 61.5 L 18.5 59 Z " /><path fill="rgb(254,254,254)" stroke="rgb(254,254,254)" stroke-width="1" opacity="1" d="M 20.5 59 L 23.5 63 L 22.5 62 L 20 63.5 L 22 61.5 L 20.5 59 Z " /><path fill="rgb(254,254,254)" stroke="rgb(254,254,254)" stroke-width="1" opacity="1" d="M 62.5 59 L 61.5 61 L 62.5 59 Z " /><path fill="rgb(254,254,254)" stroke="rgb(254,254,254)" stroke-width="1" opacity="1" d="M 50.5 60 L 53 60.5 Q 50.9 63.8 50.5 60 Z " /><path fill="rgb(254,254,254)" stroke="rgb(254,254,254)" stroke-width="1" opacity="1" d="M 70.5 60 L 69.5 62 L 70.5 60 Z " /><path fill="rgb(254,254,254)" stroke="rgb(254,254,254)" stroke-width="1" opacity="1" d="M 34.5 61 L 34.5 64 Q 31.5 62.5 34.5 61 Z " /><path fill="rgb(254,254,254)" stroke="rgb(254,254,254)" stroke-width="1" opacity="1" d="M 41.5 61 L 41.5 64 Q 38.5 62.5 41.5 61 Z " /><path fill="rgb(254,254,254)" stroke="rgb(254,254,254)" stroke-width="1" opacity="1" d="M 48.5 61 L 49.5 63 L 48.5 61 Z " /><path fill="rgb(254,254,254)" stroke="rgb(254,254,254)" stroke-width="1" opacity="1" d="M 63.5 62 L 62.5 64 L 63.5 62 Z " /><path fill="rgb(254,254,254)" stroke="rgb(254,254,254)" stroke-width="1" opacity="1" d="M 51.5 64 L 53.5 66 L 56 64.5 Q 52.8 69.8 51.5 64 Z " /><path fill="rgb(254,254,254)" stroke="rgb(254,254,254)" stroke-width="1" opacity="1" d="M 21.5 65 L 23.5 66 L 25 65.5 L 21.5 68 Q 18.5 66.5 21.5 65 Z " /><path fill="rgb(254,254,254)" stroke="rgb(254,254,254)" stroke-width="1" opacity="1" d="M 28.5 65 L 31 65.5 Q 28.9 68.8 28.5 65 Z " /><path fill="rgb(254,254,254)" stroke="rgb(254,254,254)" stroke-width="1" opacity="1" d="M 40.5 66 Q 43.5 67.5 40.5 69 L 40.5 66 Z " /><path fill="rgb(254,254,254)" stroke="rgb(254,254,254)" stroke-width="1" opacity="1" d="M 48.5 66 L 47.5 68 L 48.5 66 Z " /><path fill="rgb(254,254,254)" stroke="rgb(254,254,254)" stroke-width="1" opacity="1" d="M 57.5 66 L 58 68.5 L 57 68.5 L 57.5 66 Z " /><path fill="rgb(254,254,254)" stroke="rgb(254,254,254)" stroke-width="1" opacity="1" d="M 60.5 66 L 61.5 68 L 60.5 66 Z " /><path fill="rgb(254,254,254)" stroke="rgb(254,254,254)" stroke-width="1" opacity="1" d="M 27.5 67 L 29.5 70 L 26 68.5 L 27.5 67 Z " /><path fill="rgb(254,254,254)" stroke="rgb(254,254,254)" stroke-width="1" opacity="1" d="M 34.5 67 L 35.5 69 L 34.5 67 Z " /><path fill="rgb(254,254,254)" stroke="rgb(254,254,254)" stroke-width="1" opacity="1" d="M 55.5 67 L 56 68.5 L 54 69.5 L 55.5 67 Z " /><path fill="rgb(254,254,254)" stroke="rgb(254,254,254)" stroke-width="1" opacity="1" d="M 59.5 68 L 60.5 70 L 59.5 68 Z " /><path fill="rgb(254,254,254)" stroke="rgb(254,254,254)" stroke-width="1" opacity="1" d="M 16.5 70 L 17.5 72 L 16.5 70 Z " /><path fill="rgb(254,254,254)" stroke="rgb(254,254,254)" stroke-width="1" opacity="1" d="M 25.5 70 L 26.5 72 L 25.5 70 Z " /><path fill="rgb(254,254,254)" stroke="rgb(254,254,254)" stroke-width="1" opacity="1" d="M 35.5 70 L 36 72.5 L 35 72.5 L 35.5 70 Z " /><path fill="rgb(254,254,254)" stroke="rgb(254,254,254)" stroke-width="1" opacity="1" d="M 21.5 72 L 20.5 74 L 21.5 72 Z " /><path fill="rgb(254,254,254)" stroke="rgb(254,254,254)" stroke-width="1" opacity="1" d="M 27.5 73 L 25.5 76 L 24.5 74 Q 26 76.5 27.5 73 Z " /><path fill="rgb(254,254,254)" stroke="rgb(254,254,254)" stroke-width="1" opacity="1" d="M 37.5 73 L 36.5 75 L 37.5 73 Z " /><path fill="rgb(254,254,254)" stroke="rgb(254,254,254)" stroke-width="1" opacity="1" d="M 48.5 73 L 51.5 77 L 48.5 73 Z " /><path fill="rgb(254,254,254)" stroke="rgb(254,254,254)" stroke-width="1" opacity="1" d="M 51.5 73 L 54 73.5 Q 51.9 76.8 51.5 73 Z " /><path fill="rgb(254,254,254)" stroke="rgb(254,254,254)" stroke-width="1" opacity="1" d="M 55.5 73 L 56 74.5 L 54 75.5 L 55.5 73 Z " /><path fill="rgb(254,254,254)" stroke="rgb(254,254,254)" stroke-width="1" opacity="1" d="M 29.5 74 L 30 76 L 28 76.5 L 28.5 78 L 26 77.5 L 29.5 74 Z " /><path fill="rgb(254,254,254)" stroke="rgb(254,254,254)" stroke-width="1" opacity="1" d="M 38.5 75 L 39 77 L 37 76.5 L 38.5 75 Z " /><path fill="rgb(254,254,254)" stroke="rgb(254,254,254)" stroke-width="1" opacity="1" d="M 47.5 75 L 50 78.5 L 48.5 78 L 47 77.5 L 47.5 75 Z " /><path fill="rgb(254,254,254)" stroke="rgb(254,254,254)" stroke-width="1" opacity="1" d="M 22.5 76 L 25 77.5 L 23.5 78 L 22.5 76 Z " /><path fill="rgb(254,254,254)" stroke="rgb(254,254,254)" stroke-width="1" opacity="1" d="M 35.5 76 L 37 78.5 L 34 79.5 L 35.5 82 L 37 82.5 L 35.5 83 L 32 78.5 L 35 77.5 L 35.5 76 Z " /><path fill="rgb(254,254,254)" stroke="rgb(254,254,254)" stroke-width="1" opacity="1" d="M 53.5 77 L 55 77.5 L 53 78.5 L 53.5 80 L 51 79.5 L 53.5 77 Z " /><path fill="rgb(254,254,254)" stroke="rgb(254,254,254)" stroke-width="1" opacity="1" d="M 21.5 78 L 22.5 80 L 21.5 78 Z " /><path fill="rgb(254,254,254)" stroke="rgb(254,254,254)" stroke-width="1" opacity="1" d="M 45.5 79 L 46.5 81 L 45.5 79 Z " /><path fill="rgb(254,254,254)" stroke="rgb(254,254,254)" stroke-width="1" opacity="1" d="M 27.5 80 L 32 82.5 L 30.5 82 Q 26.8 81.7 27.5 80 Z " /><path fill="rgb(254,254,254)" stroke="rgb(254,254,254)" stroke-width="1" opacity="1" d="M 25.5 81 L 27 83.5 L 26 83.5 L 25.5 81 Z " /><path fill="rgb(254,254,254)" stroke="rgb(254,254,254)" stroke-width="1" opacity="1" d="M 48.5 81 L 51 84.5 L 50 84.5 L 49.5 83 L 48 83.5 L 48.5 81 Z " /><path fill="rgb(254,254,254)" stroke="rgb(254,254,254)" stroke-width="1" opacity="1" d="M 30.5 84 L 33 84.5 Q 29.9 86.3 31.5 88 Q 29.8 84.9 28 86.5 L 30.5 84 Z " /><path fill="rgb(254,254,254)" stroke="rgb(254,254,254)" stroke-width="1" opacity="1" d="M 41.5 84 L 45 84.5 Q 43.8 87.3 42.5 85 L 41.5 84 Z " /><path fill="rgb(254,254,254)" stroke="rgb(254,254,254)" stroke-width="1" opacity="1" d="M 54.5 86 L 55.5 88 L 54.5 86 Z " /><path fill="rgb(255,255,255)" stroke="rgb(255,255,255)" stroke-width="1" opacity="1" d="M 0 0 L 100 0 L 100 100 L 0 100 L 0 0 Z M 67 10 L 65 12 L 67 12 L 67 10 Z M 64 15 L 54 18 L 48 24 Q 49 26 46 25 L 45 33 L 42 35 L 44 35 L 45 44 L 55 58 L 54 60 L 56 64 L 56 66 L 55 69 L 55 71 L 52 76 Q 49 70 40 72 L 38 76 L 36 71 L 43 70 L 46 66 L 45 59 L 42 55 Q 36 57 35 54 L 34 56 L 30 58 Q 28 67 34 70 Q 36 69 35 72 Q 28 71 25 76 Q 26 78 24 77 L 21 75 L 18 67 L 19 58 L 22 54 Q 21 51 24 52 L 24 50 L 32 46 L 38 45 L 38 43 L 29 43 L 25 43 L 22 43 L 25 42 L 22 40 Q 17 41 18 47 L 22 50 L 18 54 L 18 56 Q 14 57 17 59 Q 15 62 16 69 L 16 71 L 21 79 L 24 80 L 26 84 L 28 83 L 32 86 L 37 85 L 39 85 L 44 86 L 45 83 L 55 78 L 54 77 L 58 69 Q 59 56 53 50 L 55 45 L 61 44 Q 63 45 61 47 L 63 47 L 64 51 L 67 49 Q 66 46 69 47 L 68 46 L 71 44 L 73 44 L 75 45 L 77 51 L 75 52 L 73 52 L 72 54 L 69 55 Q 63 53 64 57 L 81 58 L 80 60 L 84 58 Q 85 52 82 51 L 80 55 L 76 55 L 83 50 L 82 49 L 84 48 Q 83 42 87 39 L 86 37 L 87 34 L 85 30 L 86 28 Q 83 29 84 27 L 84 25 L 82 23 L 78 19 L 77 19 Q 72 15 64 15 Z " /><path fill="rgb(255,255,255)" stroke="rgb(255,255,255)" stroke-width="1" opacity="1" d="M 64.5 17 L 70.5 18 L 80 24.5 Q 84.7 29.3 84 39.5 L 79.5 48 L 78 44 L 74.5 42 L 67 42 L 65.5 46 L 62.5 42 L 56.5 42 L 51 44.5 L 52 46.5 Q 50.5 49.5 49 46.5 L 46 36.5 L 47 33.5 Q 48.2 23.7 55.5 20 L 64.5 17 Z M 65 22 L 58 26 Q 59 28 56 30 L 58 36 L 63 39 L 68 40 L 73 35 Q 72 30 74 29 Q 71 24 65 22 Z " /><path fill="rgb(255,255,255)" stroke="rgb(255,255,255)" stroke-width="1" opacity="1" d="M 63.5 25 L 70 27.5 L 71 32.5 L 68.5 36 L 63.5 37 L 61 36 L 59 32.5 L 59 29.5 L 63.5 25 Z M 63 28 L 62 31 L 63 31 L 63 28 Z " /><path fill="rgb(255,255,255)" stroke="rgb(255,255,255)" stroke-width="1" opacity="1" d="M 21.5 45 L 23.5 46 L 26.5 45 L 25.5 47 L 23.5 48 L 21.5 45 Z " /><path fill="rgb(255,255,255)" stroke="rgb(255,255,255)" stroke-width="1" opacity="1" d="M 36.5 57 L 43 59.5 L 44 65 L 42 65.5 L 42.5 67 Q 41.1 69.6 36.5 69 L 33 67 L 32 61.5 L 34.5 58 L 36.5 57 Z " /><path fill="rgb(255,255,255)" stroke="rgb(255,255,255)" stroke-width="1" opacity="1" d="M 30 74 L 35 75 Q 34.3 78.8 37.5 80 L 40 78.5 L 41 75 L 45.5 74 Q 49.2 76 47.5 78 L 49 78.5 Q 45.2 82.7 37.5 83 L 35.5 82 L 32.5 83 Q 30.6 79.4 26 80 L 28.5 76 Q 31.1 76.7 30 74 Z " /><path fill="rgb(80,80,80)" stroke="rgb(80,80,80)" stroke-width="1" opacity="1" d="M 59.5 16 L 70.5 16 L 81 22.5 Q 86.5 28 86 39.5 Q 83.9 49.4 76.5 54 L 75 54.5 L 80.5 55 L 80 53.5 L 80.5 52 L 84 56.5 L 82 60 Q 79.3 61.1 80 58.5 L 80.5 57 L 65.5 57 L 65 55 L 70.5 55 L 78 50.5 L 73.5 44 L 68 44 L 68 46.5 L 65.5 50 Q 63.3 50.8 64 48.5 L 62 44 Q 54.8 42.5 53 47.5 L 53 51.5 L 57 57.5 L 58 65.5 L 54 76.5 L 49.5 81 Q 44.4 85.9 33.5 85 Q 24.4 83.1 20 76.5 Q 15.8 71.2 16 61.5 L 22 49 L 28 45.5 L 21.5 45 L 22 46.5 Q 22.7 49.1 20 48 L 18 44.5 L 20.5 41 Q 22.8 40.3 22 42.5 L 21.5 44 L 38 44.5 Q 26 45.5 21 53.5 Q 16.5 58 18 68.5 L 23.5 78 Q 25.8 78.8 25 76.5 Q 26.6 71.1 34.5 72 L 37 77 Q 40 78.3 39 74.5 Q 40 71 45.5 72 L 51.5 77 Q 57.6 72.1 56 59.5 L 45 42.5 L 45 30.5 Q 47.6 23.1 53.5 19 L 59.5 16 Z M 63 17 L 55 20 Q 48 24 46 33 L 47 44 L 51 48 Q 53 49 52 47 Q 55 41 63 42 L 66 47 L 69 42 L 76 43 L 80 49 L 84 41 Q 86 30 81 26 Q 76 17 63 17 Z M 30 74 Q 25 74 26 80 L 32 83 Q 45 85 50 79 L 49 77 Q 47 73 41 74 L 39 79 Q 40 81 37 80 L 35 76 Q 36 73 30 74 Z " /><path fill="rgb(80,80,80)" stroke="rgb(80,80,80)" stroke-width="1" opacity="1" d="M 63.5 23 Q 70.1 22.4 72 26.5 L 73 33.5 L 69.5 38 L 63.5 39 L 59 37 L 57 29.5 L 61.5 24 L 63.5 23 Z M 63 25 Q 58 26 59 34 Q 60 38 68 37 Q 72 36 71 29 Q 70 24 63 25 Z " /><path fill="rgb(80,80,80)" stroke="rgb(80,80,80)" stroke-width="1" opacity="1" d="M 35.5 55 L 40.5 55 L 44 57 L 46 64.5 L 44 69 L 36.5 71 L 32 69 Q 29.4 66.7 30 60.5 L 33.5 56 L 35.5 55 Z M 36 57 Q 31 58 32 66 Q 33 70 41 69 Q 45 68 44 61 Q 43 56 36 57 Z " /></svg>