<svg width="100" height="100" version="1.1" xmlns="http://www.w3.org/2000/svg" desc="Created with imagetracer.js version 1.2.6" ><path fill="rgb(252,252,252)" stroke="rgb(252,252,252)" stroke-width="1" opacity="1" d="M 57.5 65 L 54.5 69 L 57.5 65 Z " /><path fill="rgb(252,252,252)" stroke="rgb(252,252,252)" stroke-width="1" opacity="1" d="M 36.5 69 L 37.5 71 L 36.5 69 Z " /><path fill="rgb(252,252,252)" stroke="rgb(252,252,252)" stroke-width="1" opacity="1" d="M 55.5 70 L 53.5 73 L 55.5 70 Z " /><path fill="rgb(252,252,252)" stroke="rgb(252,252,252)" stroke-width="1" opacity="1" d="M 36.5 72 L 37.5 74 L 36.5 72 Z " /><path fill="rgb(43,43,43)" stroke="rgb(43,43,43)" stroke-width="1" opacity="1" d="M 56.5 16 L 63.5 19 L 75 19 L 76 36.5 L 73 45.5 L 60 65.5 L 53.5 72 L 47 77.5 L 47.5 79 L 58.5 79 L 58.5 80 L 25 79.5 L 43 79 L 39.5 74 L 29 64.5 L 27 57.5 L 27 39 L 32 39 L 32 32.5 L 33.5 32 L 36 33 L 36 26.5 L 40 26 L 40 19 L 51.5 19 L 56.5 16 Z M 58 17 L 52 20 L 41 20 L 41 26 Q 49 27 54 22 Q 59 28 71 26 L 72 45 L 74 42 L 75 37 L 74 20 Q 63 22 58 17 Z M 53 24 L 46 27 L 37 27 L 37 33 Q 44 33 49 29 L 59 33 L 67 32 L 68 52 L 70 48 L 70 27 L 61 27 L 53 24 Z M 49 30 L 47 32 L 40 34 Q 35 35 34 33 L 33 39 Q 40 40 44 36 L 47 36 L 52 39 L 62 39 L 64 58 L 66 53 L 66 33 L 64 34 Q 54 34 49 30 Z M 44 37 Q 38 42 28 40 L 28 58 L 31 66 L 44 77 L 48 76 L 60 64 L 62 58 L 62 46 L 61 40 L 52 40 L 44 37 Z " /><path fill="rgb(43,43,43)" stroke="rgb(43,43,43)" stroke-width="1" opacity="1" d="M 22 28 L 32 28.5 L 23 29 L 22.5 70 L 22 28 Z " /><path fill="rgb(43,43,43)" stroke="rgb(43,43,43)" stroke-width="1" opacity="1" d="M 77.5 28 L 78 71 L 68 70.5 L 77 70 L 77.5 28 Z " /><path fill="rgb(43,43,43)" stroke="rgb(43,43,43)" stroke-width="1" opacity="1" d="M 42.5 46 Q 47.8 44.8 49 47.5 Q 47.5 51.9 50.5 51 L 52 52.5 L 52 60.5 L 50.5 62 L 39.5 62 L 38 60.5 L 38 52.5 L 41 51 Q 40 47.2 42.5 46 Z M 44 47 L 42 51 L 48 51 L 48 49 Q 47 46 44 47 Z M 41 52 Q 37 54 39 60 L 41 61 L 50 61 Q 52 59 51 54 L 50 52 L 41 52 Z " /><path fill="rgb(43,43,43)" stroke="rgb(43,43,43)" stroke-width="1" opacity="1" d="M 43.5 54 L 45.5 55 L 47 54.5 L 46 56.5 L 47 58.5 L 45.5 58 L 43.5 59 L 43 57.5 L 43 55.5 L 43.5 54 Z " /><path fill="rgb(43,43,43)" stroke="rgb(43,43,43)" stroke-width="1" opacity="1" d="M 62.5 79 L 65 79.5 L 62.5 80 L 62.5 79 Z " /><path fill="rgb(43,43,43)" stroke="rgb(43,43,43)" stroke-width="1" opacity="1" d="M 37.5 82 L 56 82.5 L 37.5 83 L 37.5 82 Z " /><path fill="rgb(255,255,255)" stroke="rgb(255,255,255)" stroke-width="1" opacity="1" d="M 0 0 L 100 0 L 100 100 L 0 100 L 0 0 Z M 58 15 L 50 19 L 40 19 L 40 25 Q 36 24 35 27 Q 37 34 31 32 L 31 39 L 27 38 L 27 62 L 29 66 L 39 74 L 42 78 L 26 78 L 25 80 L 60 80 L 60 78 L 48 78 L 54 73 L 60 67 L 75 44 L 76 41 L 76 19 Q 64 21 58 15 Z M 21 27 L 21 71 L 23 71 L 23 30 L 24 29 L 33 29 L 33 27 L 21 27 Z M 77 27 L 77 69 L 77 69 L 67 69 L 68 71 L 79 71 L 79 28 L 77 27 Z M 61 78 L 61 80 L 66 80 L 66 78 L 61 78 Z M 35 81 L 33 83 L 57 83 L 57 81 L 35 81 Z " /><path fill="rgb(255,255,255)" stroke="rgb(255,255,255)" stroke-width="1" opacity="1" d="M 56.5 18 L 64.5 21 L 74 21 L 74 39.5 L 72.5 43 L 72 25 L 64.5 26 L 52.5 22 L 42.5 26 L 42 21 Q 51.8 22.5 56.5 18 Z " /><path fill="rgb(255,255,255)" stroke="rgb(255,255,255)" stroke-width="1" opacity="1" d="M 53.5 24 L 58.5 27 L 67.5 28 L 70 27 L 70 44.5 L 67.5 50 L 67 32 Q 54.4 33.8 48.5 28 Q 44.8 32.5 37 32 L 37 27 L 38.5 27 L 43.5 28 L 48.5 27 L 53.5 24 Z " /><path fill="rgb(255,255,255)" stroke="rgb(255,255,255)" stroke-width="1" opacity="1" d="M 48.5 31 Q 54.3 35.5 65 34 L 65 54.5 L 63.5 57 L 63 38 L 54.5 39 L 43.5 35 L 41.5 37 L 33 39 L 33 34 L 42.5 34 L 48.5 31 Z " /><path fill="rgb(255,255,255)" stroke="rgb(255,255,255)" stroke-width="1" opacity="1" d="M 43.5 38 L 53.5 41 L 61 41 L 61 59.5 L 60 62.5 L 46.5 76 L 44.5 77 L 32 65.5 L 29 59.5 L 29 41 Q 38.4 42.2 43.5 38 Z M 44 45 L 41 46 L 40 49 Q 41 52 38 51 L 38 62 L 52 62 L 52 52 L 50 51 L 49 46 L 44 45 Z " /><path fill="rgb(255,255,255)" stroke="rgb(255,255,255)" stroke-width="1" opacity="1" d="M 44.5 47 L 48 49.5 L 47.5 51 L 42 51 L 44.5 47 Z " /><path fill="rgb(255,255,255)" stroke="rgb(255,255,255)" stroke-width="1" opacity="1" d="M 40 53 L 50 53 L 50 60 L 40 60 L 40 53 Z M 42 54 L 43 57 L 42 59 L 48 59 L 48 58 L 48 56 L 48 54 L 42 54 Z " /><path fill="rgb(180,180,180)" stroke="rgb(180,180,180)" stroke-width="1" opacity="1" d="M 67.5 25 L 70 25.5 L 67.5 26 L 67.5 25 Z " /><path fill="rgb(180,180,180)" stroke="rgb(180,180,180)" stroke-width="1" opacity="1" d="M 35.5 26 L 36 31.5 L 35 31.5 L 35.5 26 Z " /><path fill="rgb(180,180,180)" stroke="rgb(180,180,180)" stroke-width="1" opacity="1" d="M 71.5 26 L 72 37.5 L 71 37.5 L 71.5 26 Z " /><path fill="rgb(180,180,180)" stroke="rgb(180,180,180)" stroke-width="1" opacity="1" d="M 39.5 27 L 43 27.5 L 39.5 28 L 39.5 27 Z " /><path fill="rgb(180,180,180)" stroke="rgb(180,180,180)" stroke-width="1" opacity="1" d="M 64.5 27 L 67 27.5 L 64.5 28 L 64.5 27 Z " /><path fill="rgb(180,180,180)" stroke="rgb(180,180,180)" stroke-width="1" opacity="1" d="M 65.5 34 L 66 51.5 L 65 51.5 L 65.5 34 Z " /><path fill="rgb(180,180,180)" stroke="rgb(180,180,180)" stroke-width="1" opacity="1" d="M 53.5 40 L 56 40.5 L 53.5 41 L 53.5 40 Z " /><path fill="rgb(180,180,180)" stroke="rgb(180,180,180)" stroke-width="1" opacity="1" d="M 58.5 40 L 61 40.5 L 58.5 41 L 58.5 40 Z " /><path fill="rgb(180,180,180)" stroke="rgb(180,180,180)" stroke-width="1" opacity="1" d="M 71.5 42 Q 74.5 43.5 71.5 45 L 71.5 42 Z " /><path fill="rgb(180,180,180)" stroke="rgb(180,180,180)" stroke-width="1" opacity="1" d="M 68.5 52 L 67.5 54 L 68.5 52 Z " /><path fill="rgb(180,180,180)" stroke="rgb(180,180,180)" stroke-width="1" opacity="1" d="M 30.5 66 L 33.5 70 L 30.5 66 Z " /><path fill="rgb(180,180,180)" stroke="rgb(180,180,180)" stroke-width="1" opacity="1" d="M 50.5 72 L 49.5 74 L 50.5 72 Z " /><path fill="rgb(180,180,180)" stroke="rgb(180,180,180)" stroke-width="1" opacity="1" d="M 40.5 73 L 41.5 75 L 40.5 73 Z " /><path fill="rgb(180,180,180)" stroke="rgb(180,180,180)" stroke-width="1" opacity="1" d="M 49.5 75 L 48.5 77 L 49.5 75 Z " /><path fill="rgb(180,180,180)" stroke="rgb(180,180,180)" stroke-width="1" opacity="1" d="M 41.5 76 L 42.5 78 L 41.5 76 Z " /><path fill="rgb(124,124,124)" stroke="rgb(124,124,124)" stroke-width="1" opacity="1" d="M 59.5 16 L 58.5 18 L 59.5 16 Z " /><path fill="rgb(124,124,124)" stroke="rgb(124,124,124)" stroke-width="1" opacity="1" d="M 51.5 18 L 52.5 20 L 51.5 18 Z " /><path fill="rgb(124,124,124)" stroke="rgb(124,124,124)" stroke-width="1" opacity="1" d="M 63.5 18 L 62.5 20 L 63.5 18 Z " /><path fill="rgb(124,124,124)" stroke="rgb(124,124,124)" stroke-width="1" opacity="1" d="M 75.5 19 L 76 27.5 L 75 28.5 L 75 36.5 L 76 39.5 L 75 39.5 L 74 28.5 L 75 27.5 L 75.5 19 Z " /><path fill="rgb(124,124,124)" stroke="rgb(124,124,124)" stroke-width="1" opacity="1" d="M 41 20 L 49 20.5 L 42 21 L 41.5 25 L 41 20 Z " /><path fill="rgb(124,124,124)" stroke="rgb(124,124,124)" stroke-width="1" opacity="1" d="M 67.5 20 L 73 20.5 L 67.5 21 L 67.5 20 Z " /><path fill="rgb(124,124,124)" stroke="rgb(124,124,124)" stroke-width="1" opacity="1" d="M 45.5 25 L 46.5 27 L 45.5 25 Z " /><path fill="rgb(124,124,124)" stroke="rgb(124,124,124)" stroke-width="1" opacity="1" d="M 60.5 25 L 62 25.5 L 59.5 27 L 60.5 25 Z " /><path fill="rgb(124,124,124)" stroke="rgb(124,124,124)" stroke-width="1" opacity="1" d="M 22.5 27 L 32 27.5 L 22 28 L 22 69.5 L 23 70.5 L 21 69.5 L 21 28.5 L 22.5 27 Z " /><path fill="rgb(124,124,124)" stroke="rgb(124,124,124)" stroke-width="1" opacity="1" d="M 78.5 28 L 79 69.5 L 78 69.5 L 78.5 28 Z " /><path fill="rgb(124,124,124)" stroke="rgb(124,124,124)" stroke-width="1" opacity="1" d="M 50.5 29 L 49.5 31 L 48 30.5 L 50.5 29 Z " /><path fill="rgb(124,124,124)" stroke="rgb(124,124,124)" stroke-width="1" opacity="1" d="M 43.5 31 L 44.5 33 L 43.5 31 Z " /><path fill="rgb(124,124,124)" stroke="rgb(124,124,124)" stroke-width="1" opacity="1" d="M 54.5 31 L 53.5 33 L 54.5 31 Z " /><path fill="rgb(124,124,124)" stroke="rgb(124,124,124)" stroke-width="1" opacity="1" d="M 34.5 32 L 36 32.5 L 33.5 34 L 34.5 32 Z " /><path fill="rgb(124,124,124)" stroke="rgb(124,124,124)" stroke-width="1" opacity="1" d="M 37.5 32 L 41 33.5 L 39.5 33 Q 36.5 33.5 37.5 32 Z " /><path fill="rgb(124,124,124)" stroke="rgb(124,124,124)" stroke-width="1" opacity="1" d="M 58.5 32 Q 63.9 31.1 66 33.5 L 64.5 34 Q 63.3 31.8 58.5 33 L 57 33.5 L 58.5 32 Z " /><path fill="rgb(124,124,124)" stroke="rgb(124,124,124)" stroke-width="1" opacity="1" d="M 31.5 33 L 32 38.5 L 31 38.5 L 31.5 33 Z " /><path fill="rgb(124,124,124)" stroke="rgb(124,124,124)" stroke-width="1" opacity="1" d="M 48.5 37 L 47.5 39 L 48.5 37 Z " /><path fill="rgb(124,124,124)" stroke="rgb(124,124,124)" stroke-width="1" opacity="1" d="M 37.5 38 L 38.5 40 L 37.5 38 Z " /><path fill="rgb(124,124,124)" stroke="rgb(124,124,124)" stroke-width="1" opacity="1" d="M 51.5 38 L 50.5 40 L 51.5 38 Z " /><path fill="rgb(124,124,124)" stroke="rgb(124,124,124)" stroke-width="1" opacity="1" d="M 71.5 38 L 72 41.5 L 71 41.5 L 71.5 38 Z " /><path fill="rgb(124,124,124)" stroke="rgb(124,124,124)" stroke-width="1" opacity="1" d="M 62.5 39 L 63 43.5 L 62 43.5 L 62.5 39 Z " /><path fill="rgb(124,124,124)" stroke="rgb(124,124,124)" stroke-width="1" opacity="1" d="M 28.5 40 L 29 57.5 L 27.5 60 L 27 58.5 L 28 57.5 L 28.5 40 Z " /><path fill="rgb(124,124,124)" stroke="rgb(124,124,124)" stroke-width="1" opacity="1" d="M 31.5 40 L 34 40.5 L 31.5 41 L 31.5 40 Z " /><path fill="rgb(124,124,124)" stroke="rgb(124,124,124)" stroke-width="1" opacity="1" d="M 61.5 45 L 62 57.5 L 61 57.5 L 61.5 45 Z " /><path fill="rgb(124,124,124)" stroke="rgb(124,124,124)" stroke-width="1" opacity="1" d="M 69.5 47 L 70.5 49 L 69.5 47 Z " /><path fill="rgb(124,124,124)" stroke="rgb(124,124,124)" stroke-width="1" opacity="1" d="M 40.5 52 L 49.5 52 L 51 53.5 Q 52.5 59.5 49.5 61 L 40.5 61 L 39 59.5 Q 37.5 53.5 40.5 52 Z M 40 53 L 40 60 L 50 60 L 50 53 L 40 53 Z " /><path fill="rgb(124,124,124)" stroke="rgb(124,124,124)" stroke-width="1" opacity="1" d="M 63.5 57 Q 66.5 58.5 63.5 60 L 63.5 57 Z " /><path fill="rgb(124,124,124)" stroke="rgb(124,124,124)" stroke-width="1" opacity="1" d="M 60.5 61 L 61.5 63 L 60.5 61 Z " /><path fill="rgb(124,124,124)" stroke="rgb(124,124,124)" stroke-width="1" opacity="1" d="M 59.5 63 L 60.5 65 L 59.5 63 Z " /><path fill="rgb(124,124,124)" stroke="rgb(124,124,124)" stroke-width="1" opacity="1" d="M 31.5 65 L 34.5 69 L 31.5 65 Z " /><path fill="rgb(124,124,124)" stroke="rgb(124,124,124)" stroke-width="1" opacity="1" d="M 68.5 69 L 77 69.5 L 68.5 70 L 68.5 69 Z " /><path fill="rgb(124,124,124)" stroke="rgb(124,124,124)" stroke-width="1" opacity="1" d="M 52.5 72 L 50.5 75 L 52.5 72 Z " /><path fill="rgb(124,124,124)" stroke="rgb(124,124,124)" stroke-width="1" opacity="1" d="M 39.5 74 L 40.5 76 L 39.5 74 Z " /><path fill="rgb(124,124,124)" stroke="rgb(124,124,124)" stroke-width="1" opacity="1" d="M 48.5 74 L 47.5 76 L 48.5 74 Z " /><path fill="rgb(124,124,124)" stroke="rgb(124,124,124)" stroke-width="1" opacity="1" d="M 42.5 75 L 43.5 77 L 42.5 75 Z " /><path fill="rgb(124,124,124)" stroke="rgb(124,124,124)" stroke-width="1" opacity="1" d="M 25.5 78 L 43 78.5 L 25.5 79 L 25.5 78 Z " /><path fill="rgb(124,124,124)" stroke="rgb(124,124,124)" stroke-width="1" opacity="1" d="M 47.5 78 L 59.5 78 L 60 79.5 L 58.5 79 L 47.5 79 L 47.5 78 Z " /><path fill="rgb(124,124,124)" stroke="rgb(124,124,124)" stroke-width="1" opacity="1" d="M 62.5 78 L 65 78.5 L 62.5 79 L 62.5 78 Z " /><path fill="rgb(124,124,124)" stroke="rgb(124,124,124)" stroke-width="1" opacity="1" d="M 34.5 81 L 36.5 82 L 37.5 81 L 55.5 81 L 55.5 82 L 37.5 82 L 36.5 83 L 34.5 81 Z " /><path fill="rgb(216,216,216)" stroke="rgb(216,216,216)" stroke-width="1" opacity="1" d="M 72.5 46 L 71.5 48 L 72.5 46 Z " /><path fill="rgb(216,216,216)" stroke="rgb(216,216,216)" stroke-width="1" opacity="1" d="M 46.5 47 L 47.5 49 L 46.5 47 Z " /><path fill="rgb(216,216,216)" stroke="rgb(216,216,216)" stroke-width="1" opacity="1" d="M 58.5 67 L 56.5 70 L 58.5 67 Z " /><path fill="rgb(216,216,216)" stroke="rgb(216,216,216)" stroke-width="1" opacity="1" d="M 53.5 69 L 51.5 72 L 53.5 69 Z " /><path fill="rgb(216,216,216)" stroke="rgb(216,216,216)" stroke-width="1" opacity="1" d="M 34.5 70 L 35.5 72 L 34.5 70 Z " /><path fill="rgb(216,216,216)" stroke="rgb(216,216,216)" stroke-width="1" opacity="1" d="M 38.5 71 L 39.5 73 L 38.5 71 Z " /></svg>