<svg width="100" height="100" version="1.1" xmlns="http://www.w3.org/2000/svg" desc="Created with imagetracer.js version 1.2.6" ><path fill="rgb(254,254,254)" stroke="rgb(254,254,254)" stroke-width="1" opacity="1" d="M 52.5 8 L 50.5 11 L 52.5 8 Z " /><path fill="rgb(254,254,254)" stroke="rgb(254,254,254)" stroke-width="1" opacity="1" d="M 56.5 12 L 59.5 16 L 56.5 12 Z " /><path fill="rgb(254,254,254)" stroke="rgb(254,254,254)" stroke-width="1" opacity="1" d="M 61.5 16 L 60.5 18 L 61.5 16 Z " /><path fill="rgb(254,254,254)" stroke="rgb(254,254,254)" stroke-width="1" opacity="1" d="M 55.5 18 L 55.5 21 L 53 20.5 L 55.5 18 Z " /><path fill="rgb(254,254,254)" stroke="rgb(254,254,254)" stroke-width="1" opacity="1" d="M 62.5 22 L 61.5 24 L 62.5 22 Z " /><path fill="rgb(254,254,254)" stroke="rgb(254,254,254)" stroke-width="1" opacity="1" d="M 26.5 24 Q 29.5 25.5 26.5 27 Q 23.5 25.5 26.5 24 Z " /><path fill="rgb(254,254,254)" stroke="rgb(254,254,254)" stroke-width="1" opacity="1" d="M 40.5 24 L 43 24.5 Q 40.9 27.8 40.5 24 Z " /><path fill="rgb(254,254,254)" stroke="rgb(254,254,254)" stroke-width="1" opacity="1" d="M 73.5 24 L 74.5 26 L 72 25.5 L 73.5 24 Z " /><path fill="rgb(254,254,254)" stroke="rgb(254,254,254)" stroke-width="1" opacity="1" d="M 78.5 25 L 80 27.5 L 78 26.5 L 78.5 25 Z " /><path fill="rgb(254,254,254)" stroke="rgb(254,254,254)" stroke-width="1" opacity="1" d="M 55.5 26 L 55.5 29 Q 52.5 27.5 55.5 26 Z " /><path fill="rgb(254,254,254)" stroke="rgb(254,254,254)" stroke-width="1" opacity="1" d="M 64.5 27 L 64.5 30 Q 61.5 28.5 64.5 27 Z " /><path fill="rgb(254,254,254)" stroke="rgb(254,254,254)" stroke-width="1" opacity="1" d="M 37.5 28 L 38.5 30 L 37.5 28 Z " /><path fill="rgb(254,254,254)" stroke="rgb(254,254,254)" stroke-width="1" opacity="1" d="M 57.5 28 L 58.5 30 L 57.5 28 Z " /><path fill="rgb(254,254,254)" stroke="rgb(254,254,254)" stroke-width="1" opacity="1" d="M 61.5 29 L 60.5 31 L 61.5 29 Z " /><path fill="rgb(254,254,254)" stroke="rgb(254,254,254)" stroke-width="1" opacity="1" d="M 29.5 30 L 28.5 32 L 29.5 30 Z " /><path fill="rgb(254,254,254)" stroke="rgb(254,254,254)" stroke-width="1" opacity="1" d="M 67.5 32 L 69 33.5 L 68.5 36 L 67 34.5 L 67.5 32 Z " /><path fill="rgb(254,254,254)" stroke="rgb(254,254,254)" stroke-width="1" opacity="1" d="M 42.5 34 L 43.5 36 L 42.5 34 Z " /><path fill="rgb(254,254,254)" stroke="rgb(254,254,254)" stroke-width="1" opacity="1" d="M 45.5 36 Q 50 38 46.5 40 L 44 39.5 Q 47.1 37.8 45.5 36 Z " /><path fill="rgb(254,254,254)" stroke="rgb(254,254,254)" stroke-width="1" opacity="1" d="M 65.5 36 Q 67.8 35.3 67 37.5 L 67.5 39 L 66.5 38 L 64 39.5 L 65.5 36 Z " /><path fill="rgb(254,254,254)" stroke="rgb(254,254,254)" stroke-width="1" opacity="1" d="M 26.5 41 L 27.5 43 L 25 42.5 L 26.5 41 Z " /><path fill="rgb(254,254,254)" stroke="rgb(254,254,254)" stroke-width="1" opacity="1" d="M 74.5 41 L 75.5 43 L 74.5 41 Z " /><path fill="rgb(254,254,254)" stroke="rgb(254,254,254)" stroke-width="1" opacity="1" d="M 58.5 42 L 60 42.5 L 58 43.5 L 58.5 45 L 56 43.5 L 58.5 42 Z " /><path fill="rgb(254,254,254)" stroke="rgb(254,254,254)" stroke-width="1" opacity="1" d="M 35.5 45 L 36.5 47 L 38 46.5 L 37 48.5 L 39 48.5 L 37.5 50 L 34 48.5 L 33 46.5 L 35 46.5 L 35.5 45 Z " /><path fill="rgb(254,254,254)" stroke="rgb(254,254,254)" stroke-width="1" opacity="1" d="M 27.5 46 L 28.5 48 L 27.5 46 Z " /><path fill="rgb(254,254,254)" stroke="rgb(254,254,254)" stroke-width="1" opacity="1" d="M 21.5 48 L 19.5 51 L 21.5 48 Z " /><path fill="rgb(254,254,254)" stroke="rgb(254,254,254)" stroke-width="1" opacity="1" d="M 19.5 52 L 21 52.5 L 19 53.5 L 19.5 55 Q 16.5 53.5 19.5 52 Z " /><path fill="rgb(254,254,254)" stroke="rgb(254,254,254)" stroke-width="1" opacity="1" d="M 16.5 54 L 17.5 56 L 16.5 54 Z " /><path fill="rgb(254,254,254)" stroke="rgb(254,254,254)" stroke-width="1" opacity="1" d="M 35.5 54 L 34.5 56 L 35.5 54 Z " /><path fill="rgb(254,254,254)" stroke="rgb(254,254,254)" stroke-width="1" opacity="1" d="M 17.5 57 L 16.5 59 L 17.5 57 Z " /><path fill="rgb(254,254,254)" stroke="rgb(254,254,254)" stroke-width="1" opacity="1" d="M 28.5 57 L 28.5 60 Q 25.5 58.5 28.5 57 Z " /><path fill="rgb(254,254,254)" stroke="rgb(254,254,254)" stroke-width="1" opacity="1" d="M 63.5 57 L 64.5 59 L 63.5 57 Z " /><path fill="rgb(254,254,254)" stroke="rgb(254,254,254)" stroke-width="1" opacity="1" d="M 30.5 58 Q 33.5 59.5 30.5 61 L 30.5 58 Z " /><path fill="rgb(254,254,254)" stroke="rgb(254,254,254)" stroke-width="1" opacity="1" d="M 57.5 58 L 58.5 60 L 56 59.5 L 57.5 58 Z " /><path fill="rgb(254,254,254)" stroke="rgb(254,254,254)" stroke-width="1" opacity="1" d="M 70.5 58 L 73 59.5 L 71.5 60 L 69 59.5 L 70.5 58 Z " /><path fill="rgb(254,254,254)" stroke="rgb(254,254,254)" stroke-width="1" opacity="1" d="M 25.5 60 L 26.5 62 L 25.5 60 Z " /><path fill="rgb(254,254,254)" stroke="rgb(254,254,254)" stroke-width="1" opacity="1" d="M 74.5 60 L 76 60.5 L 74 61.5 L 75.5 64 Q 71 62 74.5 60 Z " /><path fill="rgb(254,254,254)" stroke="rgb(254,254,254)" stroke-width="1" opacity="1" d="M 23.5 62 L 22.5 64 L 23.5 62 Z " /><path fill="rgb(254,254,254)" stroke="rgb(254,254,254)" stroke-width="1" opacity="1" d="M 28.5 65 L 29.5 67 L 27.5 67 L 25.5 68 L 26.5 66 L 28.5 65 Z " /><path fill="rgb(254,254,254)" stroke="rgb(254,254,254)" stroke-width="1" opacity="1" d="M 37.5 67 L 40 67.5 Q 38 72 36 68.5 L 37.5 67 Z " /><path fill="rgb(254,254,254)" stroke="rgb(254,254,254)" stroke-width="1" opacity="1" d="M 74.5 67 Q 77.3 68.3 75 69.5 L 74.5 71 L 74 69.5 L 74.5 67 Z " /><path fill="rgb(254,254,254)" stroke="rgb(254,254,254)" stroke-width="1" opacity="1" d="M 78.5 67 L 79.5 69 L 78.5 67 Z " /><path fill="rgb(254,254,254)" stroke="rgb(254,254,254)" stroke-width="1" opacity="1" d="M 25.5 70 L 27.5 70 L 29 70.5 L 26.5 72 L 25.5 70 Z " /><path fill="rgb(254,254,254)" stroke="rgb(254,254,254)" stroke-width="1" opacity="1" d="M 71.5 72 L 73.5 75 L 71.5 72 Z " /><path fill="rgb(254,254,254)" stroke="rgb(254,254,254)" stroke-width="1" opacity="1" d="M 60.5 73 L 61.5 75 L 60.5 73 Z " /><path fill="rgb(254,254,254)" stroke="rgb(254,254,254)" stroke-width="1" opacity="1" d="M 67.5 73 L 70 73.5 Q 67.9 76.8 67.5 73 Z " /><path fill="rgb(254,254,254)" stroke="rgb(254,254,254)" stroke-width="1" opacity="1" d="M 33.5 74 L 34.5 76 L 33.5 74 Z " /><path fill="rgb(254,254,254)" stroke="rgb(254,254,254)" stroke-width="1" opacity="1" d="M 36.5 77 L 37.5 79 L 36.5 77 Z " /><path fill="rgb(254,254,254)" stroke="rgb(254,254,254)" stroke-width="1" opacity="1" d="M 69.5 77 L 68.5 79 L 69.5 77 Z " /><path fill="rgb(254,254,254)" stroke="rgb(254,254,254)" stroke-width="1" opacity="1" d="M 34.5 78 L 35 79.5 L 34 80.5 L 35.5 83 L 33 82.5 L 34 79.5 L 34.5 78 Z " /><path fill="rgb(254,254,254)" stroke="rgb(254,254,254)" stroke-width="1" opacity="1" d="M 75.5 78 L 74.5 80 L 75.5 78 Z " /><path fill="rgb(254,254,254)" stroke="rgb(254,254,254)" stroke-width="1" opacity="1" d="M 79.5 84 L 78.5 86 L 75.5 88 L 73.5 85 L 77.5 85 L 79.5 84 Z " /><path fill="rgb(254,254,254)" stroke="rgb(254,254,254)" stroke-width="1" opacity="1" d="M 34.5 86 L 37 87.5 L 35.5 88 L 34.5 86 Z " /><path fill="rgb(255,255,255)" stroke="rgb(255,255,255)" stroke-width="1" opacity="1" d="M 0 0 L 100 0 L 100 100 L 0 100 L 0 0 Z M 55 14 L 50 18 Q 51 21 48 20 L 48 24 L 45 24 L 43 24 L 41 26 L 32 26 L 30 30 L 30 32 L 30 42 L 28 42 L 26 42 L 22 43 L 21 46 L 22 48 L 22 50 Q 24 55 21 57 L 23 57 L 25 61 L 30 65 L 29 67 L 30 68 L 30 82 L 29 85 L 33 86 L 34 85 L 73 85 L 77 85 L 79 86 L 78 85 L 79 83 Q 77 81 78 76 L 78 74 L 79 71 L 78 69 L 78 65 L 79 60 Q 76 58 78 52 L 78 50 Q 77 44 79 43 L 78 42 L 78 32 L 78 30 L 79 27 L 79 25 L 76 26 L 72 26 L 68 26 L 61 23 Q 62 19 59 20 L 58 17 L 55 14 Z M 35 86 L 36 88 L 37 88 L 35 86 Z " /><path fill="rgb(255,255,255)" stroke="rgb(255,255,255)" stroke-width="1" opacity="1" d="M 54.5 17 L 56 19.5 Q 54.8 22.3 53.5 20 L 52 19.5 L 54.5 17 Z " /><path fill="rgb(255,255,255)" stroke="rgb(255,255,255)" stroke-width="1" opacity="1" d="M 50.5 22 L 53 23.5 L 50 24 L 50.5 22 Z " /><path fill="rgb(255,255,255)" stroke="rgb(255,255,255)" stroke-width="1" opacity="1" d="M 58.5 22 L 59 24 L 56 23.5 L 58.5 22 Z " /><path fill="rgb(255,255,255)" stroke="rgb(255,255,255)" stroke-width="1" opacity="1" d="M 45.5 26 L 54.5 26 L 55.5 27 L 57.5 26 L 59.5 26 Q 64.3 25.3 65 28.5 L 64.5 31 L 60.5 30 L 55.5 31 L 51.5 31 Q 46 32.5 44.5 30 L 43 30.5 L 45.5 26 Z " /><path fill="rgb(255,255,255)" stroke="rgb(255,255,255)" stroke-width="1" opacity="1" d="M 33 28 L 35.5 29 L 38.5 28 Q 42.7 26.7 41 31.5 L 46.5 34 L 47.5 33 L 68 33 L 68 28 L 69.5 28 L 71.5 28 Q 76.9 26.1 76 29.5 L 76 31.5 L 76 41.5 L 75 42.5 L 76 44.5 L 76 46.5 L 75 51.5 L 76 52.5 L 76 60 L 74 60.5 L 76 61 L 75 63.5 L 76 67.5 L 76 69.5 L 75 73.5 L 76 77.5 L 76 79.5 L 75.5 83 L 73.5 83 L 36.5 83 L 35.5 82 Q 34.3 84.3 33 81.5 L 33 79.5 L 34 74.5 L 33 70.5 L 33 68.5 Q 32.4 63.4 35.5 62 L 57.5 62 L 58.5 63 L 63 61.5 L 58.5 59 L 55.5 60 L 38 59.5 L 40.5 57 L 58.5 57 L 60.5 57 Q 62.8 57.8 62 55.5 L 59.5 54 L 58.5 55 L 44.5 55 L 42.5 54 L 41 54.5 L 42.5 52 L 46.5 53 L 47.5 52 L 59.5 52 Q 60.8 54.3 62 51.5 L 61.5 50 L 48.5 50 L 44.5 50 Q 39.3 51.5 41 47 L 61.5 47 L 62 45.5 L 60.5 44 L 57.5 45 L 45.5 45 L 43.5 44 L 41 45 Q 42.1 41.5 34.5 43 L 33 41.5 L 33 28 Z M 66 36 L 67 38 Q 68 35 66 36 Z M 45 39 L 44 40 L 36 40 Q 35 44 42 42 L 44 42 L 58 42 L 60 43 L 62 43 L 62 40 L 48 40 L 45 39 Z M 65 40 L 65 42 L 67 43 L 71 43 L 73 42 L 73 40 L 65 40 Z M 71 44 L 65 45 L 67 48 L 69 47 L 71 47 Q 74 48 73 45 L 71 44 Z M 65 50 L 67 53 L 73 52 L 73 50 L 65 50 Z M 71 54 L 65 55 Q 64 58 68 57 L 70 57 Q 74 58 73 55 L 71 54 Z M 70 59 L 65 60 L 66 62 L 74 62 L 73 61 Q 74 58 72 59 L 70 59 Z M 58 64 L 57 65 L 37 65 L 36 67 L 38 68 L 41 67 L 62 67 L 62 65 L 58 64 Z M 68 64 L 67 65 Q 64 64 65 68 L 67 67 Q 71 66 73 68 L 73 65 L 68 64 Z M 38 69 L 36 71 L 37 72 L 62 72 Q 63 69 59 70 L 57 70 L 39 70 L 38 69 Z M 67 69 L 65 71 Q 64 73 71 72 Q 72 74 73 72 Q 74 68 70 70 L 67 69 Z M 62 74 L 61 75 L 36 75 L 37 78 L 38 77 L 62 77 L 62 74 Z M 66 74 L 65 77 L 70 78 L 73 77 Q 74 74 70 75 L 68 75 L 66 74 Z " /><path fill="rgb(255,255,255)" stroke="rgb(255,255,255)" stroke-width="1" opacity="1" d="M 30.5 44 L 35 45 L 35.5 47 L 36 45 Q 40.1 43.3 39 47.5 L 39 49.5 L 38 55.5 L 31.5 62 L 30.5 60 L 29 60.5 L 27.5 58 L 25 56.5 L 24 54.5 L 24 52.5 L 25 50.5 L 24 45 L 30.5 44 Z M 28 47 L 28 51 L 28 52 L 29 52 L 29 57 L 35 56 L 33 55 L 35 48 L 34 48 L 28 47 Z " /><path fill="rgb(157,157,157)" stroke="rgb(157,157,157)" stroke-width="1" opacity="1" d="M 53.5 15 L 56 15.5 L 53.5 16 L 53.5 15 Z " /><path fill="rgb(157,157,157)" stroke="rgb(157,157,157)" stroke-width="1" opacity="1" d="M 52.5 20 L 55.5 21 L 57 20.5 L 53.5 22 L 52.5 20 Z " /><path fill="rgb(157,157,157)" stroke="rgb(157,157,157)" stroke-width="1" opacity="1" d="M 60.5 20 L 61 24 L 64 24.5 L 61.5 25 Q 58.8 23.8 60.5 20 Z " /><path fill="rgb(157,157,157)" stroke="rgb(157,157,157)" stroke-width="1" opacity="1" d="M 54.5 23 L 59 24.5 L 50.5 25 L 50.5 24 L 54.5 23 Z " /><path fill="rgb(157,157,157)" stroke="rgb(157,157,157)" stroke-width="1" opacity="1" d="M 45.5 24 L 48 24.5 L 45.5 25 L 45.5 24 Z " /><path fill="rgb(157,157,157)" stroke="rgb(157,157,157)" stroke-width="1" opacity="1" d="M 31.5 26 L 42 26.5 L 31 27 L 31 41.5 L 29.5 43 L 30 41.5 L 30 27.5 L 31.5 26 Z " /><path fill="rgb(157,157,157)" stroke="rgb(157,157,157)" stroke-width="1" opacity="1" d="M 44.5 26 L 43.5 28 L 44.5 26 Z " /><path fill="rgb(157,157,157)" stroke="rgb(157,157,157)" stroke-width="1" opacity="1" d="M 64.5 26 Q 66.8 26.8 66 30.5 L 65 30.5 L 64.5 26 Z " /><path fill="rgb(157,157,157)" stroke="rgb(157,157,157)" stroke-width="1" opacity="1" d="M 67.5 26 L 78 26.5 L 67.5 27 L 67.5 26 Z " /><path fill="rgb(157,157,157)" stroke="rgb(157,157,157)" stroke-width="1" opacity="1" d="M 32.5 28 L 33 41.5 L 32 41.5 L 32.5 28 Z " /><path fill="rgb(157,157,157)" stroke="rgb(157,157,157)" stroke-width="1" opacity="1" d="M 41.5 28 L 42 32 L 66.5 32 L 67 28.5 L 68 28.5 Q 68.8 32.3 66.5 33 L 42.5 33 L 41 31.5 L 41.5 28 Z " /><path fill="rgb(157,157,157)" stroke="rgb(157,157,157)" stroke-width="1" opacity="1" d="M 76.5 28 L 77 84 L 32 84 L 32 64.5 L 33 64.5 L 33 83 L 76 83 L 76.5 28 Z " /><path fill="rgb(157,157,157)" stroke="rgb(157,157,157)" stroke-width="1" opacity="1" d="M 37.5 41 L 62 41.5 L 37.5 42 L 37.5 41 Z " /><path fill="rgb(157,157,157)" stroke="rgb(157,157,157)" stroke-width="1" opacity="1" d="M 65.5 41 L 72 41.5 L 65.5 42 L 65.5 41 Z " /><path fill="rgb(157,157,157)" stroke="rgb(157,157,157)" stroke-width="1" opacity="1" d="M 23.5 43 L 27 43.5 L 23.5 44 L 23.5 43 Z " /><path fill="rgb(157,157,157)" stroke="rgb(157,157,157)" stroke-width="1" opacity="1" d="M 35.5 43 L 39 43.5 L 35.5 44 L 35.5 43 Z " /><path fill="rgb(157,157,157)" stroke="rgb(157,157,157)" stroke-width="1" opacity="1" d="M 23.5 45 L 24 53.5 L 23 53.5 L 23.5 45 Z " /><path fill="rgb(157,157,157)" stroke="rgb(157,157,157)" stroke-width="1" opacity="1" d="M 41.5 46 L 62 46.5 L 41.5 47 L 41.5 46 Z " /><path fill="rgb(157,157,157)" stroke="rgb(157,157,157)" stroke-width="1" opacity="1" d="M 65.5 46 L 72 46.5 L 65.5 47 L 65.5 46 Z " /><path fill="rgb(157,157,157)" stroke="rgb(157,157,157)" stroke-width="1" opacity="1" d="M 30.5 47 L 34 48.5 L 32.5 48 Q 29.5 48.5 30.5 47 Z " /><path fill="rgb(157,157,157)" stroke="rgb(157,157,157)" stroke-width="1" opacity="1" d="M 32.5 50 L 31.5 52 L 32.5 50 Z " /><path fill="rgb(157,157,157)" stroke="rgb(157,157,157)" stroke-width="1" opacity="1" d="M 41.5 51 L 62 51.5 L 41.5 52 L 41.5 51 Z " /><path fill="rgb(157,157,157)" stroke="rgb(157,157,157)" stroke-width="1" opacity="1" d="M 65.5 51 L 72 51.5 L 65.5 52 L 65.5 51 Z " /><path fill="rgb(157,157,157)" stroke="rgb(157,157,157)" stroke-width="1" opacity="1" d="M 29.5 52 L 30 56 L 33 56.5 L 30.5 57 Q 27.8 55.8 29.5 52 Z " /><path fill="rgb(157,157,157)" stroke="rgb(157,157,157)" stroke-width="1" opacity="1" d="M 40.5 56 L 62 56.5 L 40.5 57 L 40.5 56 Z " /><path fill="rgb(157,157,157)" stroke="rgb(157,157,157)" stroke-width="1" opacity="1" d="M 65.5 56 L 72 56.5 L 65.5 57 L 65.5 56 Z " /><path fill="rgb(157,157,157)" stroke="rgb(157,157,157)" stroke-width="1" opacity="1" d="M 25.5 57 L 26.5 59 L 25.5 57 Z " /><path fill="rgb(157,157,157)" stroke="rgb(157,157,157)" stroke-width="1" opacity="1" d="M 38.5 58 L 37.5 61 L 62 61.5 L 37.5 62 Q 34 60 38.5 58 Z " /><path fill="rgb(157,157,157)" stroke="rgb(157,157,157)" stroke-width="1" opacity="1" d="M 27.5 61 L 28.5 63 L 27.5 61 Z " /><path fill="rgb(157,157,157)" stroke="rgb(157,157,157)" stroke-width="1" opacity="1" d="M 32.5 61 L 31.5 63 L 32.5 61 Z " /><path fill="rgb(157,157,157)" stroke="rgb(157,157,157)" stroke-width="1" opacity="1" d="M 65.5 61 L 72 61.5 L 65.5 62 L 65.5 61 Z " /><path fill="rgb(157,157,157)" stroke="rgb(157,157,157)" stroke-width="1" opacity="1" d="M 30.5 64 L 31 83.5 L 30 83.5 L 30.5 64 Z " /><path fill="rgb(157,157,157)" stroke="rgb(157,157,157)" stroke-width="1" opacity="1" d="M 37.5 66 L 62 66.5 L 37.5 67 L 37.5 66 Z " /><path fill="rgb(157,157,157)" stroke="rgb(157,157,157)" stroke-width="1" opacity="1" d="M 65.5 66 L 72 66.5 L 65.5 67 L 65.5 66 Z " /><path fill="rgb(157,157,157)" stroke="rgb(157,157,157)" stroke-width="1" opacity="1" d="M 37.5 71 L 62 71.5 L 37.5 72 L 37.5 71 Z " /><path fill="rgb(157,157,157)" stroke="rgb(157,157,157)" stroke-width="1" opacity="1" d="M 65.5 71 L 72 71.5 L 65.5 72 L 65.5 71 Z " /><path fill="rgb(229,229,229)" stroke="rgb(229,229,229)" stroke-width="1" opacity="1" d="M 52.5 15 L 50.5 18 L 52.5 15 Z " /><path fill="rgb(229,229,229)" stroke="rgb(229,229,229)" stroke-width="1" opacity="1" d="M 56.5 15 L 57.5 17 L 56.5 15 Z " /><path fill="rgb(229,229,229)" stroke="rgb(229,229,229)" stroke-width="1" opacity="1" d="M 53.5 17 L 52.5 19 L 53.5 17 Z " /><path fill="rgb(229,229,229)" stroke="rgb(229,229,229)" stroke-width="1" opacity="1" d="M 29.5 47 L 28.5 49 L 29.5 47 Z " /><path fill="rgb(229,229,229)" stroke="rgb(229,229,229)" stroke-width="1" opacity="1" d="M 37.5 56 L 33.5 61 L 37.5 56 Z " /><path fill="rgb(229,229,229)" stroke="rgb(229,229,229)" stroke-width="1" opacity="1" d="M 35.5 61 L 37 61.5 L 33.5 64 L 35.5 61 Z " /><path fill="rgb(7,7,7)" stroke="rgb(7,7,7)" stroke-width="1" opacity="1" d="M 52.5 16 L 51.5 18 L 52.5 16 Z " /><path fill="rgb(7,7,7)" stroke="rgb(7,7,7)" stroke-width="1" opacity="1" d="M 36.5 59 L 35.5 61 L 33.5 62 L 34.5 60 L 36.5 59 Z " /><path fill="rgb(7,7,7)" stroke="rgb(7,7,7)" stroke-width="1" opacity="1" d="M 29.5 62 L 30.5 64 L 29.5 62 Z " /><path fill="rgb(0,0,0)" stroke="rgb(0,0,0)" stroke-width="1" opacity="1" d="M 51.5 18 L 52 20.5 L 51 20.5 L 51.5 18 Z " /><path fill="rgb(0,0,0)" stroke="rgb(0,0,0)" stroke-width="1" opacity="1" d="M 57.5 18 L 58 20.5 Q 57.5 23.5 53.5 23 L 53.5 22 L 57 20.5 L 57.5 18 Z " /><path fill="rgb(0,0,0)" stroke="rgb(0,0,0)" stroke-width="1" opacity="1" d="M 44.5 25 L 65 25.5 L 44.5 26 L 44.5 25 Z " /><path fill="rgb(0,0,0)" stroke="rgb(0,0,0)" stroke-width="1" opacity="1" d="M 31.5 27 L 32 42.5 L 31 42.5 L 31.5 27 Z " /><path fill="rgb(0,0,0)" stroke="rgb(0,0,0)" stroke-width="1" opacity="1" d="M 42.5 27 L 43 31 L 65.5 31 L 66 27.5 L 67 27.5 Q 67.5 32 66.5 32 L 42 32 L 42.5 27 Z " /><path fill="rgb(0,0,0)" stroke="rgb(0,0,0)" stroke-width="1" opacity="1" d="M 77.5 27 L 78 85 L 31 85 L 31 63.5 L 33 62.5 L 32 63.5 L 32 84 L 77 84 L 77.5 27 Z " /><path fill="rgb(0,0,0)" stroke="rgb(0,0,0)" stroke-width="1" opacity="1" d="M 38.5 40 L 61 40.5 L 38.5 41 L 38.5 40 Z " /><path fill="rgb(0,0,0)" stroke="rgb(0,0,0)" stroke-width="1" opacity="1" d="M 66.5 40 L 71 40.5 L 66.5 41 L 66.5 40 Z " /><path fill="rgb(0,0,0)" stroke="rgb(0,0,0)" stroke-width="1" opacity="1" d="M 22.5 44 L 23 53.5 L 22 53.5 L 22.5 44 Z " /><path fill="rgb(0,0,0)" stroke="rgb(0,0,0)" stroke-width="1" opacity="1" d="M 36.5 44 L 39 44.5 L 36.5 45 L 36.5 44 Z " /><path fill="rgb(0,0,0)" stroke="rgb(0,0,0)" stroke-width="1" opacity="1" d="M 40.5 45 L 61 45.5 L 40.5 46 L 40.5 45 Z " /><path fill="rgb(0,0,0)" stroke="rgb(0,0,0)" stroke-width="1" opacity="1" d="M 66.5 45 L 71 45.5 L 66.5 46 L 66.5 45 Z " /><path fill="rgb(0,0,0)" stroke="rgb(0,0,0)" stroke-width="1" opacity="1" d="M 30.5 48 L 30 49.5 Q 28.9 52.8 31.5 52 L 31 53.5 L 31.5 55 L 33 54.5 Q 33.7 57.5 30 56 L 29 49.5 L 30.5 48 Z " /><path fill="rgb(0,0,0)" stroke="rgb(0,0,0)" stroke-width="1" opacity="1" d="M 32.5 48 L 34 50.5 L 33 50.5 L 32.5 48 Z " /><path fill="rgb(0,0,0)" stroke="rgb(0,0,0)" stroke-width="1" opacity="1" d="M 23.5 56 L 28.5 62 L 23.5 56 Z " /><path fill="rgb(66,66,66)" stroke="rgb(66,66,66)" stroke-width="1" opacity="1" d="M 49.5 20 L 50 22.5 Q 50.7 25.1 48 24 L 49.5 20 Z " /><path fill="rgb(66,66,66)" stroke="rgb(66,66,66)" stroke-width="1" opacity="1" d="M 57.5 21 L 56.5 23 L 57.5 21 Z " /><path fill="rgb(66,66,66)" stroke="rgb(66,66,66)" stroke-width="1" opacity="1" d="M 59.5 22 L 61 24.5 L 59 23.5 L 59.5 22 Z " /><path fill="rgb(66,66,66)" stroke="rgb(66,66,66)" stroke-width="1" opacity="1" d="M 65.5 25 L 66.5 27 L 65.5 25 Z " /><path fill="rgb(66,66,66)" stroke="rgb(66,66,66)" stroke-width="1" opacity="1" d="M 33.5 27 L 41 27.5 L 33.5 28 L 33.5 27 Z " /><path fill="rgb(66,66,66)" stroke="rgb(66,66,66)" stroke-width="1" opacity="1" d="M 68.5 27 L 76 27.5 L 68.5 28 L 68.5 27 Z " /><path fill="rgb(66,66,66)" stroke="rgb(66,66,66)" stroke-width="1" opacity="1" d="M 39.5 45 Q 42 46.2 41 50 L 62 50.5 L 41.5 51 L 40 50.5 L 41 52.5 L 39 53 L 39.5 45 Z " /><path fill="rgb(66,66,66)" stroke="rgb(66,66,66)" stroke-width="1" opacity="1" d="M 65.5 50 L 72 50.5 L 65.5 51 L 65.5 50 Z " /><path fill="rgb(66,66,66)" stroke="rgb(66,66,66)" stroke-width="1" opacity="1" d="M 41.5 55 L 62 55.5 L 41.5 56 L 41.5 55 Z " /><path fill="rgb(66,66,66)" stroke="rgb(66,66,66)" stroke-width="1" opacity="1" d="M 65.5 55 L 72 55.5 L 65.5 56 L 65.5 55 Z " /><path fill="rgb(66,66,66)" stroke="rgb(66,66,66)" stroke-width="1" opacity="1" d="M 24.5 58 L 29 60.5 L 26.5 61 L 24.5 58 Z " /><path fill="rgb(66,66,66)" stroke="rgb(66,66,66)" stroke-width="1" opacity="1" d="M 37.5 60 L 62 60.5 L 37.5 61 L 37.5 60 Z " /><path fill="rgb(66,66,66)" stroke="rgb(66,66,66)" stroke-width="1" opacity="1" d="M 65.5 60 L 72 60.5 L 65.5 61 L 65.5 60 Z " /><path fill="rgb(66,66,66)" stroke="rgb(66,66,66)" stroke-width="1" opacity="1" d="M 37.5 65 L 62 65.5 L 37.5 66 L 37.5 65 Z " /><path fill="rgb(66,66,66)" stroke="rgb(66,66,66)" stroke-width="1" opacity="1" d="M 65.5 65 L 72 65.5 L 65.5 66 L 65.5 65 Z " /><path fill="rgb(66,66,66)" stroke="rgb(66,66,66)" stroke-width="1" opacity="1" d="M 37.5 70 L 62 70.5 L 37.5 71 L 37.5 70 Z " /><path fill="rgb(66,66,66)" stroke="rgb(66,66,66)" stroke-width="1" opacity="1" d="M 65.5 70 L 72 70.5 L 65.5 71 L 65.5 70 Z " /><path fill="rgb(66,66,66)" stroke="rgb(66,66,66)" stroke-width="1" opacity="1" d="M 37 75 L 62 75.5 L 60.5 77 L 37 77 L 37 75 Z " /><path fill="rgb(66,66,66)" stroke="rgb(66,66,66)" stroke-width="1" opacity="1" d="M 65.5 75 Q 73.1 73.5 72 77 Q 65.4 78.5 65.5 75 Z " /><path fill="rgb(44,44,44)" stroke="rgb(44,44,44)" stroke-width="1" opacity="1" d="M 50.5 20 L 51.5 22 L 49 21.5 L 50.5 20 Z " /><path fill="rgb(44,44,44)" stroke="rgb(44,44,44)" stroke-width="1" opacity="1" d="M 58.5 20 L 59.5 22 L 58.5 20 Z " /><path fill="rgb(44,44,44)" stroke="rgb(44,44,44)" stroke-width="1" opacity="1" d="M 42.5 26 L 41.5 28 L 42.5 26 Z " /><path fill="rgb(44,44,44)" stroke="rgb(44,44,44)" stroke-width="1" opacity="1" d="M 34.5 43 L 35.5 45 L 34.5 43 Z " /><path fill="rgb(44,44,44)" stroke="rgb(44,44,44)" stroke-width="1" opacity="1" d="M 40.5 55 L 39.5 57 L 40.5 55 Z " /><path fill="rgb(44,44,44)" stroke="rgb(44,44,44)" stroke-width="1" opacity="1" d="M 37.5 57 L 35.5 60 L 37.5 57 Z " /><path fill="rgb(44,44,44)" stroke="rgb(44,44,44)" stroke-width="1" opacity="1" d="M 29.5 61 L 30.5 63 L 29.5 61 Z " /><path fill="rgb(44,44,44)" stroke="rgb(44,44,44)" stroke-width="1" opacity="1" d="M 34.5 61 L 33.5 63 L 34.5 61 Z " /></svg>