<svg width="100" height="100" version="1.1" xmlns="http://www.w3.org/2000/svg" desc="Created with imagetracer.js version 1.2.6" ><path fill="rgb(251,251,251)" stroke="rgb(251,251,251)" stroke-width="1" opacity="1" d="M 62.5 27 L 63.5 29 L 62.5 27 Z " /><path fill="rgb(251,251,251)" stroke="rgb(251,251,251)" stroke-width="1" opacity="1" d="M 72.5 27 L 75 28.5 L 73.5 28 L 71.5 29 L 72.5 27 Z " /><path fill="rgb(251,251,251)" stroke="rgb(251,251,251)" stroke-width="1" opacity="1" d="M 20.5 37 L 22.5 40 L 20.5 37 Z " /><path fill="rgb(251,251,251)" stroke="rgb(251,251,251)" stroke-width="1" opacity="1" d="M 19.5 39 L 20.5 41 L 19.5 39 Z " /><path fill="rgb(251,251,251)" stroke="rgb(251,251,251)" stroke-width="1" opacity="1" d="M 23.5 43 L 24.5 45 L 23.5 43 Z " /><path fill="rgb(251,251,251)" stroke="rgb(251,251,251)" stroke-width="1" opacity="1" d="M 15.5 46 L 16.5 48 L 15.5 46 Z " /><path fill="rgb(251,251,251)" stroke="rgb(251,251,251)" stroke-width="1" opacity="1" d="M 15.5 49 L 16.5 51 L 15.5 49 Z " /><path fill="rgb(251,251,251)" stroke="rgb(251,251,251)" stroke-width="1" opacity="1" d="M 24.5 51 L 23.5 53 L 24.5 51 Z " /><path fill="rgb(251,251,251)" stroke="rgb(251,251,251)" stroke-width="1" opacity="1" d="M 89.5 65 L 88.5 67 L 89.5 65 Z " /><path fill="rgb(255,255,255)" stroke="rgb(255,255,255)" stroke-width="1" opacity="1" d="M 0 0 L 100 0 L 100 100 L 0 100 L 0 0 Z M 24 17 L 22 19 L 22 27 Q 19 31 11 29 L 11 44 L 13 48 L 18 51 Q 24 53 22 65 L 24 66 L 51 66 L 52 69 L 51 73 L 49 75 L 31 75 L 31 83 L 32 83 L 76 83 L 76 75 L 58 75 L 55 70 L 58 66 L 78 66 L 80 68 L 89 67 L 91 64 L 90 57 L 86 54 L 85 50 L 86 49 L 86 20 L 84 17 L 24 17 Z " /><path fill="rgb(255,255,255)" stroke="rgb(255,255,255)" stroke-width="1" opacity="1" d="M 25.5 19 L 82.5 19 L 84 20.5 L 84 31.5 L 82.5 33 L 34.5 33 L 34 29 L 26.5 29 L 24 28 L 24 20.5 L 25.5 19 Z M 64 24 L 62 26 L 64 29 L 67 28 Q 69 22 64 24 Z M 68 24 Q 67 28 70 29 L 73 28 L 77 29 Q 79 28 78 24 L 73 25 L 68 24 Z " /><path fill="rgb(255,255,255)" stroke="rgb(255,255,255)" stroke-width="1" opacity="1" d="M 21.5 30 L 32 31 L 33 39.5 Q 31.6 47.6 25.5 51 L 22.5 53 L 13 42.5 L 13 31 L 20.5 31 L 21.5 30 Z M 19 37 Q 18 40 21 42 L 19 45 L 23 43 Q 24 46 27 45 L 25 42 L 27 37 L 24 39 L 19 37 Z " /><path fill="rgb(255,255,255)" stroke="rgb(255,255,255)" stroke-width="1" opacity="1" d="M 34.5 35 L 83.5 35 L 84 35.5 L 84 48 L 32 47.5 L 34 45.5 Q 33.4 39.4 36 36.5 L 34.5 35 Z M 64 39 L 62 43 Q 63 45 67 44 L 67 39 L 64 39 Z M 68 39 L 68 44 L 73 43 L 75 44 L 78 44 L 78 39 L 74 40 L 68 39 Z " /><path fill="rgb(255,255,255)" stroke="rgb(255,255,255)" stroke-width="1" opacity="1" d="M 29.5 50 L 82.5 50 L 84 51.5 Q 84.8 54.1 81.5 53 L 77.5 55 L 75.5 54 L 71.5 55 L 69.5 54 Q 67.3 54.8 68 58.5 L 70.5 60 L 74.5 59 Q 77 60.2 76 64 L 24.5 64 L 24 63.5 L 24 55.5 L 29.5 50 Z M 65 54 L 64 55 Q 61 54 62 58 L 66 60 Q 68 59 67 56 L 65 54 Z " /><path fill="rgb(255,255,255)" stroke="rgb(255,255,255)" stroke-width="1" opacity="1" d="M 82.5 55 L 88 57.5 L 82.5 61 L 82 59 Q 79 57.8 80 61.5 L 83.5 63 L 88 61 L 88.5 59 L 89 62.5 Q 88 67 81.5 66 L 79 65 L 78 58.5 L 82.5 55 Z " /><path fill="rgb(255,255,255)" stroke="rgb(255,255,255)" stroke-width="1" opacity="1" d="M 53.5 72 L 55 75 L 52 74.5 L 53.5 72 Z " /><path fill="rgb(255,255,255)" stroke="rgb(255,255,255)" stroke-width="1" opacity="1" d="M 33 77 L 73.5 77 L 74 81 L 33.5 81 L 33 77 Z " /><path fill="rgb(166,166,166)" stroke="rgb(166,166,166)" stroke-width="1" opacity="1" d="M 24.5 17 L 84 17.5 L 24.5 18 L 24.5 17 Z " /><path fill="rgb(166,166,166)" stroke="rgb(166,166,166)" stroke-width="1" opacity="1" d="M 85.5 19 L 86 32.5 L 85 32.5 L 85.5 19 Z " /><path fill="rgb(166,166,166)" stroke="rgb(166,166,166)" stroke-width="1" opacity="1" d="M 23.5 20 L 24 27.5 L 23 27.5 L 23.5 20 Z " /><path fill="rgb(166,166,166)" stroke="rgb(166,166,166)" stroke-width="1" opacity="1" d="M 64.5 25 Q 69 27 65.5 29 L 64 28.5 L 66 27.5 L 64.5 25 Z " /><path fill="rgb(166,166,166)" stroke="rgb(166,166,166)" stroke-width="1" opacity="1" d="M 70.5 25 L 69.5 28 L 71 28.5 L 69.5 29 Q 66 27 70.5 25 Z " /><path fill="rgb(166,166,166)" stroke="rgb(166,166,166)" stroke-width="1" opacity="1" d="M 72 25 Q 75 24 74 27 Q 71 28 72 25 Z " /><path fill="rgb(166,166,166)" stroke="rgb(166,166,166)" stroke-width="1" opacity="1" d="M 75.5 25 Q 80 27 76.5 29 L 75 28.5 L 77 27.5 L 75.5 25 Z " /><path fill="rgb(166,166,166)" stroke="rgb(166,166,166)" stroke-width="1" opacity="1" d="M 20.5 28 L 21.5 30 L 20.5 28 Z " /><path fill="rgb(166,166,166)" stroke="rgb(166,166,166)" stroke-width="1" opacity="1" d="M 11 29 L 18 29.5 L 12 30 L 11.5 43 L 11 29 Z " /><path fill="rgb(166,166,166)" stroke="rgb(166,166,166)" stroke-width="1" opacity="1" d="M 27.5 29 L 34 29.5 L 25.5 31 L 25.5 30 L 27.5 29 Z " /><path fill="rgb(166,166,166)" stroke="rgb(166,166,166)" stroke-width="1" opacity="1" d="M 32.5 31 L 33 35.5 L 32 35.5 L 32.5 31 Z " /><path fill="rgb(166,166,166)" stroke="rgb(166,166,166)" stroke-width="1" opacity="1" d="M 34.5 34 L 83 34.5 L 34.5 35 L 34.5 34 Z " /><path fill="rgb(166,166,166)" stroke="rgb(166,166,166)" stroke-width="1" opacity="1" d="M 85.5 35 L 86 48.5 L 85 48.5 L 85.5 35 Z " /><path fill="rgb(166,166,166)" stroke="rgb(166,166,166)" stroke-width="1" opacity="1" d="M 34.5 36 L 35 40.5 L 34 40.5 L 34.5 36 Z " /><path fill="rgb(166,166,166)" stroke="rgb(166,166,166)" stroke-width="1" opacity="1" d="M 25.5 37 L 26.5 39 L 25.5 38 L 23 39.5 L 25.5 37 Z " /><path fill="rgb(166,166,166)" stroke="rgb(166,166,166)" stroke-width="1" opacity="1" d="M 71.5 39 L 73.5 40 L 75 39.5 L 74 42.5 L 77 41.5 Q 75.3 45.8 73.5 43 L 71.5 44 L 69.5 41 L 72 42.5 L 71.5 39 Z " /><path fill="rgb(166,166,166)" stroke="rgb(166,166,166)" stroke-width="1" opacity="1" d="M 32.5 40 L 34 44.5 L 32 43.5 L 32.5 40 Z " /><path fill="rgb(166,166,166)" stroke="rgb(166,166,166)" stroke-width="1" opacity="1" d="M 21.5 41 L 20.5 45 Q 18.3 45.8 19 43.5 L 21.5 41 Z " /><path fill="rgb(166,166,166)" stroke="rgb(166,166,166)" stroke-width="1" opacity="1" d="M 24.5 41 L 27 44.5 L 26 44.5 L 24.5 41 Z " /><path fill="rgb(166,166,166)" stroke="rgb(166,166,166)" stroke-width="1" opacity="1" d="M 62.5 41 L 64 43.5 L 62 42.5 L 62.5 41 Z " /><path fill="rgb(166,166,166)" stroke="rgb(166,166,166)" stroke-width="1" opacity="1" d="M 13.5 43 L 15 45.5 L 12 45.5 L 13.5 43 Z " /><path fill="rgb(166,166,166)" stroke="rgb(166,166,166)" stroke-width="1" opacity="1" d="M 31.5 45 L 32.5 48 L 84 48.5 L 31 49 L 30.5 47 L 28 48.5 L 31.5 45 Z " /><path fill="rgb(166,166,166)" stroke="rgb(166,166,166)" stroke-width="1" opacity="1" d="M 17.5 48 L 22 52.5 L 21.5 55 L 19 52.5 L 20 51.5 L 17.5 48 Z " /><path fill="rgb(166,166,166)" stroke="rgb(166,166,166)" stroke-width="1" opacity="1" d="M 28.5 50 L 25.5 54 L 28.5 50 Z " /><path fill="rgb(166,166,166)" stroke="rgb(166,166,166)" stroke-width="1" opacity="1" d="M 85.5 50 L 86 53.5 L 85 53.5 L 85.5 50 Z " /><path fill="rgb(166,166,166)" stroke="rgb(166,166,166)" stroke-width="1" opacity="1" d="M 81.5 53 L 84 53.5 L 81.5 54 L 81.5 53 Z " /><path fill="rgb(166,166,166)" stroke="rgb(166,166,166)" stroke-width="1" opacity="1" d="M 79.5 54 Q 83 56 78.5 58 L 79.5 54 Z " /><path fill="rgb(166,166,166)" stroke="rgb(166,166,166)" stroke-width="1" opacity="1" d="M 87.5 54 L 89.5 57 L 87.5 54 Z " /><path fill="rgb(166,166,166)" stroke="rgb(166,166,166)" stroke-width="1" opacity="1" d="M 23.5 55 L 24 62.5 L 23 62.5 L 23.5 55 Z " /><path fill="rgb(166,166,166)" stroke="rgb(166,166,166)" stroke-width="1" opacity="1" d="M 66.5 55 L 66 56.5 L 67 58.5 L 65.5 58 Q 62.9 58.7 64 56 L 66.5 55 Z " /><path fill="rgb(166,166,166)" stroke="rgb(166,166,166)" stroke-width="1" opacity="1" d="M 68.5 55 L 70 57.5 L 68 58.5 L 69 56.5 L 68.5 55 Z " /><path fill="rgb(166,166,166)" stroke="rgb(166,166,166)" stroke-width="1" opacity="1" d="M 72 56 Q 75 55 74 58 Q 71 59 72 56 Z " /><path fill="rgb(166,166,166)" stroke="rgb(166,166,166)" stroke-width="1" opacity="1" d="M 90.5 58 L 91 62.5 L 90 62.5 L 90.5 58 Z " /><path fill="rgb(166,166,166)" stroke="rgb(166,166,166)" stroke-width="1" opacity="1" d="M 77.5 59 L 78 61.5 L 77 61.5 L 77.5 59 Z " /><path fill="rgb(166,166,166)" stroke="rgb(166,166,166)" stroke-width="1" opacity="1" d="M 85.5 59 L 86.5 61 L 85.5 59 Z " /><path fill="rgb(166,166,166)" stroke="rgb(166,166,166)" stroke-width="1" opacity="1" d="M 24.5 65 L 51 65.5 L 24.5 66 L 24.5 65 Z " /><path fill="rgb(166,166,166)" stroke="rgb(166,166,166)" stroke-width="1" opacity="1" d="M 52.5 65 Q 55.8 63.9 55 66.5 L 53 67.5 L 53.5 66 L 52.5 65 Z " /><path fill="rgb(166,166,166)" stroke="rgb(166,166,166)" stroke-width="1" opacity="1" d="M 57.5 65 L 77.5 65 L 79 66.5 L 77.5 66 L 57.5 66 L 56.5 67 L 57.5 65 Z " /><path fill="rgb(166,166,166)" stroke="rgb(166,166,166)" stroke-width="1" opacity="1" d="M 81.5 66 L 85 66.5 L 80.5 68 L 81.5 66 Z " /><path fill="rgb(166,166,166)" stroke="rgb(166,166,166)" stroke-width="1" opacity="1" d="M 53.5 71 L 54.5 73 L 53.5 71 Z " /><path fill="rgb(166,166,166)" stroke="rgb(166,166,166)" stroke-width="1" opacity="1" d="M 50.5 73 Q 51.8 75.8 56 75.5 L 51 76 L 50.5 73 Z " /><path fill="rgb(166,166,166)" stroke="rgb(166,166,166)" stroke-width="1" opacity="1" d="M 57.5 74 L 58.5 75 L 76 75.5 L 58.5 76 L 57.5 74 Z " /><path fill="rgb(166,166,166)" stroke="rgb(166,166,166)" stroke-width="1" opacity="1" d="M 31 75 L 49 75.5 L 32 76 L 31.5 83 L 31 75 Z " /><path fill="rgb(166,166,166)" stroke="rgb(166,166,166)" stroke-width="1" opacity="1" d="M 74.5 77 L 75 80.5 L 73.5 82 L 33.5 82 L 33.5 81 L 73.5 81 L 74.5 77 Z " /><path fill="rgb(32,32,32)" stroke="rgb(32,32,32)" stroke-width="1" opacity="1" d="M 23.5 18 L 85 18 L 85 53.5 L 86.5 54 Q 91.8 55.8 90 64.5 Q 88.4 68.9 81.5 68 L 77.5 65 L 57.5 65 L 55 70.5 L 58.5 76 L 76 76 L 76 83 L 32.5 83 L 32 82.5 L 32 76 L 48.5 76 L 51 73.5 L 53 69.5 L 51 65 L 23.5 65 L 22 63.5 L 22 54.5 L 19.5 52 L 13 46.5 L 12 44.5 L 12 30 Q 18.8 31.1 22 27.5 L 22 19.5 L 23.5 18 Z M 25 19 L 23 21 L 23 28 L 28 30 L 34 30 L 35 33 L 84 33 L 84 20 L 84 19 L 25 19 Z M 22 29 Q 19 32 13 31 L 13 45 L 22 53 L 24 53 L 29 49 L 33 44 L 33 31 Q 26 32 22 29 Z M 34 34 L 34 44 L 31 49 L 84 49 L 84 49 L 84 36 L 83 34 L 34 34 Z M 29 50 L 23 56 L 23 63 L 25 64 L 77 64 L 76 63 L 76 60 Q 73 60 74 55 L 78 56 Q 80 53 84 54 L 84 50 L 29 50 Z M 81 55 L 77 60 Q 77 65 82 67 L 87 66 Q 90 65 89 59 Q 88 54 81 55 Z M 53 65 L 53 68 L 55 67 Q 56 64 53 65 Z M 54 71 L 51 75 L 51 76 L 56 76 L 54 71 Z M 33 77 L 33 82 L 74 82 L 75 81 L 75 77 L 33 77 Z " /><path fill="rgb(32,32,32)" stroke="rgb(32,32,32)" stroke-width="1" opacity="1" d="M 63 24 L 67 25.5 L 65.5 28 Q 60.9 29.2 63 24 Z M 65 25 Q 63 28 66 27 L 65 25 Z " /><path fill="rgb(32,32,32)" stroke="rgb(32,32,32)" stroke-width="1" opacity="1" d="M 69.5 24 Q 74.1 22.8 72 28 L 68 26.5 L 69.5 24 Z M 71 25 L 69 27 L 71 27 L 71 25 Z " /><path fill="rgb(32,32,32)" stroke="rgb(32,32,32)" stroke-width="1" opacity="1" d="M 74 24 L 78 25.5 L 76.5 28 Q 71.9 29.2 74 24 Z M 76 25 Q 74 28 77 27 L 76 25 Z " /><path fill="rgb(32,32,32)" stroke="rgb(32,32,32)" stroke-width="1" opacity="1" d="M 19.5 38 L 23.5 40 L 26 38.5 L 24 41.5 L 26 44.5 L 23.5 43 L 20.5 44 L 22 41.5 L 19.5 38 Z " /><path fill="rgb(32,32,32)" stroke="rgb(32,32,32)" stroke-width="1" opacity="1" d="M 64.5 39 L 67 40 L 65.5 44 L 63 42.5 L 64.5 39 Z " /><path fill="rgb(32,32,32)" stroke="rgb(32,32,32)" stroke-width="1" opacity="1" d="M 70.5 39 L 72 42.5 L 69.5 44 L 68 40 L 70.5 39 Z M 70 41 L 71 43 Q 72 40 70 41 Z " /><path fill="rgb(32,32,32)" stroke="rgb(32,32,32)" stroke-width="1" opacity="1" d="M 75.5 39 L 78 40 L 76.5 44 L 74 42.5 L 75.5 39 Z M 75 41 L 75 43 L 77 42 L 75 41 Z " /><path fill="rgb(32,32,32)" stroke="rgb(32,32,32)" stroke-width="1" opacity="1" d="M 63 55 L 67 56.5 L 65.5 59 Q 60.9 60.2 63 55 Z M 64 56 Q 63 59 66 58 Q 67 55 64 56 Z " /><path fill="rgb(32,32,32)" stroke="rgb(32,32,32)" stroke-width="1" opacity="1" d="M 69.5 55 Q 74.1 53.8 72 59 L 68 57.5 L 69.5 55 Z M 69 56 Q 68 59 71 58 Q 72 55 69 56 Z " /><path fill="rgb(32,32,32)" stroke="rgb(32,32,32)" stroke-width="1" opacity="1" d="M 80.5 59 L 83.5 61 L 87.5 59 L 87.5 60 L 81 63 L 80.5 59 Z " /></svg>